<svg width="1271" height="397" viewBox="0 0 1271 397" fill="none" xmlns="http://www.w3.org/2000/svg">
<circle cx="84.0898" cy="192.554" r="12.1654" fill="black"/>
<path fill-rule="evenodd" clip-rule="evenodd" d="M47.676 178.957C50.6392 141.565 65.6132 113.121 83.6395 113.121C92.5303 113.121 100.679 120.04 107.01 131.539C102.234 132.535 96.1186 131.954 93.6581 131.539C90.5901 127.977 87.2017 126.002 83.6395 126.002C73.6461 126.002 65.0197 141.553 61.001 164.045C62.5685 163.072 64.1656 162.116 65.7908 161.177C103.783 139.243 142.752 135.612 152.83 153.068C157.112 160.485 155.489 170.517 149.29 181.286C147.319 180.034 142.911 176.643 141.038 173.097C143.388 167.777 143.737 163.081 141.674 159.508C134.758 147.529 103.347 152.715 71.5157 171.093C67.1504 173.613 63.004 176.251 59.1163 178.957C59.0592 179.687 59.0066 180.422 58.9587 181.162C58.7926 183.719 58.6815 186.327 58.6287 188.975C56.1574 187.871 53.8747 186.056 52.0036 184.206L51.8756 184.306C51.7723 184.127 51.6722 183.95 51.5751 183.774C49.777 181.93 48.404 180.102 47.676 178.957ZM120.136 192.553C120.136 236.423 103.796 271.986 83.6395 271.986C75.0741 271.986 67.1979 265.564 60.9719 254.812C63.0414 253.731 68.1824 251.608 72.1898 251.76C75.6214 256.455 79.514 259.105 83.6395 259.105C97.4723 259.105 108.686 229.309 108.686 192.553C108.686 187.513 108.475 182.603 108.075 177.883C107.471 177.469 106.861 177.056 106.245 176.645C104.113 175.222 101.911 173.822 99.6433 172.452C101.835 170.864 104.548 169.795 107.086 169.099C107.079 169.046 107.071 168.992 107.063 168.938C107.27 168.938 107.474 168.94 107.675 168.944C110.171 168.309 112.44 168.034 113.796 167.976C144.697 189.238 161.843 216.428 152.83 232.039C148.385 239.739 138.318 243.336 125.194 243.069C126.72 238.435 130.28 233.43 131.87 231.506C136.488 230.63 139.894 228.684 141.675 225.599C146.671 216.944 137.517 201.698 120.047 186.971C120.106 188.815 120.136 190.677 120.136 192.553ZM90.2456 230.728C56.3818 246.857 24.2612 248.112 15.248 232.5C10.8026 224.801 12.7208 214.284 19.514 203.052C22.7639 206.691 25.3187 212.277 26.1898 214.615C24.6392 219.053 24.6222 222.975 26.4033 226.06C31.4 234.714 49.1813 234.409 70.6693 226.644C69.043 225.773 67.4162 224.868 65.7911 223.93C27.7989 201.995 5.17017 170.062 15.2483 152.607C19.531 145.189 29.0308 141.579 41.4558 141.563C41.3567 143.896 40.6246 149.409 38.4898 152.804C32.708 153.428 28.4664 155.474 26.4036 159.047C19.4872 171.027 39.6847 195.636 71.516 214.014C75.8811 216.534 80.2383 218.806 84.5255 220.82C85.1868 220.504 85.8496 220.182 86.5137 219.854C88.8117 218.719 91.1254 217.512 93.4456 216.233C93.7247 218.925 93.2945 221.81 92.6274 224.355C92.6778 224.376 92.7282 224.396 92.7786 224.416C92.6751 224.595 92.5714 224.771 92.4675 224.944C91.7696 227.422 90.8736 229.525 90.2456 230.728Z" fill="black"/>
<path d="M158.063 15.7974C158.063 20.1448 154.539 23.6691 150.191 23.6691C145.844 23.6691 142.319 20.1448 142.319 15.7974C142.319 12.4862 144.364 9.65252 147.259 8.48979C147.367 8.44656 147.476 8.40565 147.586 8.36711C148.401 8.08117 149.278 7.92569 150.191 7.92569C154.539 7.92569 158.063 11.45 158.063 15.7974Z" fill="black"/>
<path d="M150.191 7.92569C154.539 7.92569 158.063 11.45 158.063 15.7974C158.063 8.03187 154.405 3.86286 150.191 1.79169C146.949 0.198302 143.378 -0.153475 140.888 0.0539637C138.741 0.232867 129.015 -0.518525 120.616 14.3662C115.664 23.8099 110.475 39.1454 107.97 47.5365C103.593 62.4242 99.4513 82.8364 96.5204 93.799H112.264C114.685 74.4283 120.442 39.8842 128.007 19.0799C128.96 16.0053 130.876 11.0829 133.303 7.21007C134.4 5.50733 137.883 2.15411 143.035 2.36316C143.817 2.40169 144.546 2.49914 145.182 2.62447C145.764 2.72179 147.112 3.20265 147.845 4.34763C148.896 6.00967 148.278 7.53823 147.586 8.36711C148.401 8.08117 149.278 7.92569 150.191 7.92569Z" fill="black"/>
<path d="M0.628555 380.044C0.628555 375.696 4.15285 372.172 8.50028 372.172C12.8477 372.172 16.372 375.696 16.372 380.044C16.372 383.355 14.3297 386.188 11.4343 387.351C11.3266 387.394 11.3582 387.435 11.2482 387.474C10.4327 387.76 9.41342 387.915 8.50028 387.915C4.15285 387.915 0.628555 384.391 0.628555 380.044Z" fill="black"/>
<path d="M8.50028 387.915C4.15285 387.915 0.628555 384.391 0.628555 380.044C0.628555 381.058 0.691521 382.011 0.810158 382.906C1.21611 385.968 2.21069 388.415 3.491 390.347L3.52646 390.4C5.69951 393.534 9.57974 395.484 11.2482 396.068C13.442 396.702 16.3052 397.142 19.6078 396.958C20.9937 396.888 23.2398 396.575 25.6749 395.869C27.2824 395.382 30.2074 394.153 33.0706 392.18C34.8405 390.89 38.4165 387.531 42.165 382.276C43.931 379.8 45.7353 376.903 47.4071 373.603C48.5424 371.488 49.5698 369.314 50.3872 367.163C51.5956 364.345 52.7862 361.252 53.9321 357.86C59.4644 343.372 65.3051 322.868 71.4741 292.023H56.4462C54.5379 305.62 49.5764 336.391 44.9964 350.703C43.3615 357.139 39.4854 369.603 34.6957 378.612C31.0349 386.055 26.6381 390.301 24.8973 391.493C23.1442 392.811 21.4578 393.46 20.6657 393.64C16.0858 394.785 13.0787 393.144 12.1477 392.18C11.9314 391.984 11.7307 391.756 11.5626 391.493C10.511 389.831 10.5561 388.303 11.2482 387.474C10.4327 387.76 9.41342 387.915 8.50028 387.915Z" fill="black"/>
<path d="M243.944 131.108C249.716 131.498 249.716 133.604 248.078 137.816L235.754 169.094H235.364L222.962 137.348C221.168 132.746 221.636 131.654 226.94 131.108C227.408 130.64 227.408 129.002 226.94 128.534C223.82 128.612 220.31 128.69 217.502 128.69C214.616 128.69 211.964 128.612 209.39 128.534C208.922 129.002 209 130.64 209.468 131.108C213.758 131.498 214.304 132.824 216.41 138.206L231.854 178.142C232.322 179.39 232.868 179.936 233.648 179.936C234.506 179.936 235.052 179.312 235.52 178.142L251.588 138.362C253.07 134.696 254.396 131.654 259.31 131.108C259.778 130.64 259.778 129.002 259.31 128.534C256.97 128.612 254.24 128.69 252.446 128.69C250.652 128.69 247.142 128.612 243.944 128.534C243.476 129.002 243.476 130.64 243.944 131.108ZM274.781 169.484V138.206C274.781 131.732 276.107 131.342 281.567 131.108C282.035 130.64 282.035 129.002 281.567 128.534C278.135 128.612 274.391 128.69 271.427 128.69C268.775 128.69 265.031 128.612 261.365 128.534C260.897 129.002 260.897 130.64 261.365 131.108C266.825 131.342 268.151 131.732 268.151 138.206V169.484C268.151 175.958 266.825 176.348 261.365 176.582C260.897 177.05 260.897 178.688 261.365 179.156C264.875 179.078 268.619 179 271.505 179C274.235 179 278.057 179.078 281.567 179.156C282.035 178.688 282.035 177.05 281.567 176.582C276.107 176.348 274.781 175.958 274.781 169.484ZM297.937 169.484V138.206C297.937 131.732 299.263 131.342 304.723 131.108C305.191 130.64 305.191 129.002 304.723 128.534C301.291 128.612 297.547 128.69 294.583 128.69C291.931 128.69 288.187 128.612 284.521 128.534C284.053 129.002 284.053 130.64 284.521 131.108C289.981 131.342 291.307 131.732 291.307 138.206V169.484C291.307 175.958 289.981 176.348 284.521 176.582C284.053 177.05 284.053 178.688 284.521 179.156C288.031 179.078 291.775 179 294.661 179C297.391 179 301.213 179.078 304.723 179.156C305.191 178.688 305.191 177.05 304.723 176.582C299.263 176.348 297.937 175.958 297.937 169.484ZM321.093 169.484V138.206C321.093 131.732 322.419 131.342 327.879 131.108C328.347 130.64 328.347 129.002 327.879 128.534C324.447 128.612 320.703 128.69 317.739 128.69C315.087 128.69 311.343 128.612 307.677 128.534C307.209 129.002 307.209 130.64 307.677 131.108C313.137 131.342 314.463 131.732 314.463 138.206V169.484C314.463 175.958 313.137 176.348 307.677 176.582C307.209 177.05 307.209 178.688 307.677 179.156C311.187 179.078 314.931 179 317.817 179C320.547 179 324.369 179.078 327.879 179.156C328.347 178.688 328.347 177.05 327.879 176.582C322.419 176.348 321.093 175.958 321.093 169.484ZM376.698 179.78C384.264 179.78 391.206 176.192 396.51 169.25C396.12 168.548 395.574 168.08 394.716 168.08C389.178 174.164 383.874 176.582 376.62 176.582C366.09 176.582 358.836 164.726 358.836 153.338C358.836 146.63 360.552 141.014 363.438 137.504C367.338 132.746 371.862 130.562 375.918 130.562C386.682 130.562 390.972 136.958 393 143.666C393.936 143.978 394.638 143.744 395.574 143.276C395.184 139.22 394.638 135.476 393.858 131.186C389.88 130.796 386.37 127.676 376.776 127.676C370.146 127.676 364.608 130.094 360.006 134.306C354.78 139.064 351.738 146.708 351.738 154.82C351.738 168.392 359.928 179.78 376.698 179.78ZM425.095 130.484C435.391 130.484 443.737 139.064 443.737 154.82C443.737 168.782 437.029 176.972 428.137 176.972C418.621 176.972 409.651 168.47 409.651 153.494C409.651 137.114 417.373 130.484 425.095 130.484ZM451.225 153.338C451.225 137.192 440.071 127.676 426.109 127.676C410.977 127.676 402.163 139.766 402.163 154.82C402.163 170.186 413.317 179.78 426.577 179.78C435.157 179.78 442.099 176.114 446.389 169.952C449.509 165.584 451.225 159.89 451.225 153.338ZM497.413 139.064V164.57C497.413 166.052 497.413 166.91 496.867 166.91C496.555 166.91 495.385 165.506 493.123 162.62L466.369 128.69L455.839 128.534C455.371 129.002 455.371 130.64 455.839 131.108C459.193 131.342 461.533 134.072 462.001 136.1V168.626C462.001 175.568 460.675 176.036 455.215 176.582C454.747 177.05 454.747 178.688 455.215 179.156C458.569 179.078 462.079 179 463.951 179C465.745 179 469.333 179.078 472.609 179.156C473.077 178.688 473.077 177.05 472.609 176.582C467.149 176.036 465.823 175.724 465.823 168.626V144.758C465.823 142.106 465.823 140.936 466.447 140.936C466.915 140.936 467.773 141.794 469.099 143.51L496.321 177.908C497.179 179.078 498.193 179.78 499.441 179.78C500.533 179.78 501.235 178.844 501.235 177.362V139.064C501.235 132.122 502.561 131.654 508.021 131.108C508.489 130.64 508.489 129.002 508.021 128.534C504.823 128.612 501.079 128.69 499.285 128.69C497.569 128.69 494.059 128.612 490.627 128.534C490.159 129.002 490.159 130.64 490.627 131.108C496.087 131.654 497.413 131.966 497.413 139.064ZM537.99 127.676C524.964 127.676 511.47 137.894 511.47 155.054C511.47 169.094 521.142 179.78 536.04 179.78C545.244 179.78 552.498 177.83 557.802 173.306C556.944 172.604 556.554 171.98 556.554 171.122V162.074C556.554 159.344 557.88 158.564 560.142 158.33C560.61 157.862 560.61 155.99 560.142 155.522C558.27 155.6 556.32 155.678 553.2 155.678C550.548 155.678 546.96 155.6 543.528 155.522C543.06 155.99 543.06 157.862 543.528 158.33C547.74 158.72 549.924 158.954 549.924 162.074V174.008C547.272 176.504 542.046 176.972 537.834 176.972C525.51 176.972 518.958 163.79 518.958 153.494C518.958 139.844 527.772 130.484 536.898 130.484C548.208 130.484 551.406 136.958 553.434 143.666C554.292 143.744 555.072 143.588 556.008 143.198C555.774 139.922 555.462 136.802 554.214 131.186C549.534 130.406 546.648 127.676 537.99 127.676ZM583.197 130.796C587.954 130.796 593.571 132.512 593.571 141.716C593.571 151.466 588.033 153.65 580.467 153.65H576.723V135.788C576.723 133.526 577.658 130.796 583.197 130.796ZM576.723 169.484V156.302C583.274 156.302 584.678 157.472 585.849 159.266L594.195 172.838C596.379 176.504 599.811 179.78 604.491 179.78C605.66 179.78 606.987 179.624 607.767 179.234C608.001 178.766 608.001 177.986 607.689 177.362C604.178 177.362 602.229 174.788 600.201 171.356L590.373 154.976C593.726 153.884 600.746 149.828 600.746 141.638C600.746 137.738 599.421 134.54 596.613 131.888C592.869 128.378 588.033 128.144 583.119 128.144C579.452 128.144 576.177 128.69 573.369 128.69C570.638 128.69 566.972 128.612 563.306 128.534C562.838 129.002 562.838 130.64 563.306 131.108C568.766 131.342 570.092 131.732 570.092 138.206V169.484C570.092 175.958 568.766 176.348 563.306 176.582C562.838 177.05 562.838 178.688 563.306 179.156C566.816 179.078 570.404 179 573.446 179C576.333 179 580.076 179.078 583.509 179.156C583.976 178.688 583.976 177.05 583.509 176.582C578.049 176.348 576.723 175.958 576.723 169.484ZM629.678 150.842H622.58V136.802C622.58 133.37 623.516 131.81 627.728 131.81H633.578C639.428 131.81 640.676 134.93 642.392 140.312C643.328 140.468 644.186 140.312 644.966 139.922C644.576 136.724 643.406 129.236 643.25 128.612C643.25 128.456 643.172 128.378 642.938 128.378C641.612 128.612 640.988 128.69 639.116 128.69H619.226C616.808 128.69 612.284 128.612 609.164 128.534C608.696 129.002 608.696 130.64 609.164 131.108C614.624 131.342 615.95 131.732 615.95 138.206V169.484C615.95 175.958 614.624 176.348 609.164 176.582C608.696 177.05 608.696 178.688 609.164 179.156C612.05 179.078 616.73 179 619.304 179H636.074C639.818 179 646.058 179.156 646.058 179.156C647.15 175.256 648.32 170.108 648.944 166.13C648.086 165.74 647.228 165.506 646.214 165.74C644.654 171.356 641.924 175.958 635.996 175.958H626.948C623.672 175.958 622.58 174.71 622.58 171.044V153.806H629.678C636.308 153.806 636.542 155.6 636.776 159.11C637.244 159.578 638.882 159.578 639.35 159.11C639.272 157.082 639.194 154.976 639.194 152.246C639.194 150.062 639.272 147.41 639.35 145.538C638.882 145.07 637.244 145.07 636.776 145.538C636.542 149.828 636.308 150.842 629.678 150.842ZM681.91 129.782C677.386 129.158 677.62 127.676 669.976 127.676C662.098 127.676 655.156 132.902 655.156 141.17C655.156 149.438 661.864 153.182 668.728 155.756C673.486 157.628 679.258 159.812 679.258 167.378C679.258 173.696 675.67 176.972 669.508 176.972C662.176 176.972 657.496 173.696 655.78 165.896C654.844 165.584 653.986 165.74 653.284 166.13C653.596 172.136 653.908 174.164 654.844 177.986C659.758 177.986 661.864 179.78 668.806 179.78C672.394 179.78 675.748 178.922 678.478 177.284C682.924 174.476 685.81 169.64 685.81 164.648C685.81 156.38 679.492 152.714 673.096 150.374C668.494 148.58 660.694 145.694 660.694 139.064C660.694 134.696 664.672 130.328 669.196 130.328C676.84 130.328 679.258 135.164 680.818 140.312C681.598 140.468 682.612 140.39 683.314 139.844C683.08 136.1 682.768 133.916 681.91 129.782ZM714.853 130.484C725.149 130.484 733.495 139.064 733.495 154.82C733.495 168.782 726.787 176.972 717.895 176.972C708.379 176.972 699.409 168.47 699.409 153.494C699.409 137.114 707.131 130.484 714.853 130.484ZM740.983 153.338C740.983 137.192 729.829 127.676 715.867 127.676C700.735 127.676 691.921 139.766 691.921 154.82C691.921 170.186 703.075 179.78 716.335 179.78C724.915 179.78 731.857 176.114 736.147 169.952C739.267 165.584 740.983 159.89 740.983 153.338ZM785.221 150.842H778.123V136.802C778.123 133.37 779.059 131.81 783.271 131.81H789.121C794.971 131.81 796.219 134.93 797.935 140.312C798.871 140.468 799.729 140.312 800.509 139.922C800.119 136.724 798.949 129.236 798.793 128.612C798.793 128.456 798.715 128.378 798.481 128.378C797.155 128.612 796.531 128.69 794.659 128.69H774.769C772.351 128.69 767.827 128.612 764.707 128.534C764.239 129.002 764.239 130.64 764.707 131.108C770.167 131.342 771.493 131.732 771.493 138.206V169.484C771.493 175.958 770.167 176.348 764.707 176.582C764.239 177.05 764.239 178.688 764.707 179.156C767.593 179.078 772.273 179 774.847 179H791.617C795.361 179 801.601 179.156 801.601 179.156C802.693 175.256 803.863 170.108 804.487 166.13C803.629 165.74 802.771 165.506 801.757 165.74C800.197 171.356 797.467 175.958 791.539 175.958H782.491C779.215 175.958 778.123 174.71 778.123 171.044V153.806H785.221C791.851 153.806 792.085 155.6 792.319 159.11C792.787 159.578 794.425 159.578 794.893 159.11C794.815 157.082 794.737 154.976 794.737 152.246C794.737 150.062 794.815 147.41 794.893 145.538C794.425 145.07 792.787 145.07 792.319 145.538C792.085 149.828 791.851 150.842 785.221 150.842ZM837.453 129.782C832.929 129.158 833.163 127.676 825.519 127.676C817.641 127.676 810.699 132.902 810.699 141.17C810.699 149.438 817.407 153.182 824.271 155.756C829.029 157.628 834.801 159.812 834.801 167.378C834.801 173.696 831.213 176.972 825.051 176.972C817.719 176.972 813.039 173.696 811.323 165.896C810.387 165.584 809.529 165.74 808.827 166.13C809.139 172.136 809.451 174.164 810.387 177.986C815.301 177.986 817.407 179.78 824.349 179.78C827.937 179.78 831.291 178.922 834.021 177.284C838.467 174.476 841.353 169.64 841.353 164.648C841.353 156.38 835.035 152.714 828.639 150.374C824.037 148.58 816.237 145.694 816.237 139.064C816.237 134.696 820.215 130.328 824.739 130.328C832.383 130.328 834.801 135.164 836.361 140.312C837.141 140.468 838.155 140.39 838.857 139.844C838.623 136.1 838.311 133.916 837.453 129.782ZM871.878 169.484V139.688C871.878 134.696 872.658 131.732 875.466 131.732H877.182C883.032 131.732 886.698 133.76 888.024 139.766C888.882 139.766 889.974 139.688 890.676 139.376C890.13 135.788 889.74 131.81 889.662 128.3C889.662 128.222 889.506 128.066 889.428 128.066C886.776 128.3 878.118 128.69 871.956 128.69H865.248C859.242 128.69 850.038 128.3 847.074 128.066C846.918 128.066 846.762 128.222 846.762 128.3C846.45 131.81 845.67 135.866 844.812 139.61C845.592 139.922 846.528 140 847.464 140C849.024 133.76 852.612 131.732 857.76 131.732H861.582C864.468 131.732 865.248 134.696 865.248 139.454V169.484C865.248 175.958 863.922 176.348 857.682 176.582C857.214 177.05 857.214 178.688 857.682 179.156C861.504 179.078 865.404 179 868.602 179C871.566 179 875.544 179.078 879.444 179.156C879.912 178.688 879.912 177.05 879.444 176.582C873.204 176.348 871.878 175.958 871.878 169.484ZM907.43 138.206C907.43 131.732 908.6 131.342 914.606 131.108C915.074 130.64 915.074 129.002 914.606 128.534C910.94 128.612 907.118 128.69 904.076 128.69C901.034 128.69 897.836 128.612 894.794 128.534C894.326 129.002 894.326 130.64 894.794 131.108C899.474 131.342 900.8 131.732 900.8 138.206V160.826C900.8 176.738 911.018 179.78 919.052 179.78C935.042 179.78 938.864 169.874 938.864 155.99V138.206C938.864 131.966 940.19 131.654 944.87 131.108C945.338 130.64 945.338 129.002 944.87 128.534C941.906 128.612 938.708 128.69 936.914 128.69C935.198 128.69 931.454 128.612 927.866 128.534C927.398 129.002 927.398 130.64 927.866 131.108C933.716 131.654 935.042 131.888 935.042 138.206V157.394C935.042 166.13 933.872 176.582 920.69 176.582C916.946 176.582 913.748 175.178 911.408 172.916C907.586 169.25 907.43 163.322 907.43 158.252V138.206ZM960.48 172.448V135.008C960.48 132.278 963.21 131.186 967.032 131.186C983.88 131.186 989.418 144.836 989.418 156.848C989.418 172.604 979.98 176.504 968.982 176.504C961.338 176.504 960.48 174.944 960.48 172.448ZM957.126 128.69C954.318 128.69 950.184 128.612 947.064 128.534C946.596 129.002 946.596 130.64 947.064 131.108C952.524 131.342 953.85 131.732 953.85 138.206V169.484C953.85 175.958 952.524 176.348 947.064 176.582C946.596 177.05 946.596 178.688 947.064 179.156C950.106 179.078 954.24 179 957.204 179C960.09 179 963.366 179.156 971.4 179.156C982.398 179.156 996.906 174.164 996.906 154.976C996.906 140.468 984.972 128.534 969.996 128.534C964.458 128.534 960.168 128.69 957.126 128.69ZM1015.17 169.484V138.206C1015.17 131.732 1016.5 131.342 1021.96 131.108C1022.43 130.64 1022.43 129.002 1021.96 128.534C1018.53 128.612 1014.78 128.69 1011.82 128.69C1009.17 128.69 1005.42 128.612 1001.76 128.534C1001.29 129.002 1001.29 130.64 1001.76 131.108C1007.22 131.342 1008.54 131.732 1008.54 138.206V169.484C1008.54 175.958 1007.22 176.348 1001.76 176.582C1001.29 177.05 1001.29 178.688 1001.76 179.156C1005.27 179.078 1009.01 179 1011.9 179C1014.63 179 1018.45 179.078 1021.96 179.156C1022.43 178.688 1022.43 177.05 1021.96 176.582C1016.5 176.348 1015.17 175.958 1015.17 169.484ZM1043.94 156.926C1042.23 156.926 1041.68 156.692 1041.92 155.912L1049.95 135.71H1050.42L1057.75 156.926H1043.94ZM1035.52 172.838L1039.81 161.528C1040.2 160.514 1040.67 160.202 1042.54 160.202H1059L1063.52 173.384C1064.38 176.114 1061.42 176.348 1057.75 176.582C1057.28 177.05 1057.28 178.688 1057.75 179.156C1060.64 179.078 1064.93 179 1067.97 179C1071.17 179 1074.13 179.078 1076.86 179.156C1077.33 178.688 1077.33 177.05 1076.86 176.582C1073.82 176.348 1071.17 176.114 1069.84 172.292L1053.77 127.676C1052.6 128.378 1050.5 129.236 1049.48 129.236L1031.78 171.044C1029.75 175.88 1027.33 176.348 1023.98 176.582C1023.51 177.05 1023.51 178.688 1023.98 179.156C1026 179.078 1028.5 179 1030.92 179C1034.12 179 1038.02 179.078 1040.9 179.156C1041.37 178.688 1041.37 177.05 1040.9 176.582C1037.94 176.426 1034.27 176.114 1035.52 172.838ZM1121.03 139.064V164.57C1121.03 166.052 1121.03 166.91 1120.49 166.91C1120.17 166.91 1119 165.506 1116.74 162.62L1089.99 128.69L1079.46 128.534C1078.99 129.002 1078.99 130.64 1079.46 131.108C1082.81 131.342 1085.15 134.072 1085.62 136.1V168.626C1085.62 175.568 1084.29 176.036 1078.83 176.582C1078.37 177.05 1078.37 178.688 1078.83 179.156C1082.19 179.078 1085.7 179 1087.57 179C1089.36 179 1092.95 179.078 1096.23 179.156C1096.7 178.688 1096.7 177.05 1096.23 176.582C1090.77 176.036 1089.44 175.724 1089.44 168.626V144.758C1089.44 142.106 1089.44 140.936 1090.07 140.936C1090.53 140.936 1091.39 141.794 1092.72 143.51L1119.94 177.908C1120.8 179.078 1121.81 179.78 1123.06 179.78C1124.15 179.78 1124.85 178.844 1124.85 177.362V139.064C1124.85 132.122 1126.18 131.654 1131.64 131.108C1132.11 130.64 1132.11 129.002 1131.64 128.534C1128.44 128.612 1124.7 128.69 1122.9 128.69C1121.19 128.69 1117.68 128.612 1114.25 128.534C1113.78 129.002 1113.78 130.64 1114.25 131.108C1119.71 131.654 1121.03 131.966 1121.03 139.064ZM1162.4 169.484V139.688C1162.4 134.696 1163.18 131.732 1165.99 131.732H1167.7C1173.55 131.732 1177.22 133.76 1178.54 139.766C1179.4 139.766 1180.49 139.688 1181.2 139.376C1180.65 135.788 1180.26 131.81 1180.18 128.3C1180.18 128.222 1180.03 128.066 1179.95 128.066C1177.3 128.3 1168.64 128.69 1162.48 128.69H1155.77C1149.76 128.69 1140.56 128.3 1137.59 128.066C1137.44 128.066 1137.28 128.222 1137.28 128.3C1136.97 131.81 1136.19 135.866 1135.33 139.61C1136.11 139.922 1137.05 140 1137.98 140C1139.54 133.76 1143.13 131.732 1148.28 131.732H1152.1C1154.99 131.732 1155.77 134.696 1155.77 139.454V169.484C1155.77 175.958 1154.44 176.348 1148.2 176.582C1147.73 177.05 1147.73 178.688 1148.2 179.156C1152.02 179.078 1155.92 179 1159.12 179C1162.09 179 1166.06 179.078 1169.96 179.156C1170.43 178.688 1170.43 177.05 1169.96 176.582C1163.72 176.348 1162.4 175.958 1162.4 169.484ZM1196.54 169.484V138.206C1196.54 131.732 1197.86 131.342 1203.32 131.108C1203.79 130.64 1203.79 129.002 1203.32 128.534C1199.89 128.612 1196.15 128.69 1193.18 128.69C1190.53 128.69 1186.79 128.612 1183.12 128.534C1182.65 129.002 1182.65 130.64 1183.12 131.108C1188.58 131.342 1189.91 131.732 1189.91 138.206V169.484C1189.91 175.958 1188.58 176.348 1183.12 176.582C1182.65 177.05 1182.65 178.688 1183.12 179.156C1186.63 179.078 1190.37 179 1193.26 179C1195.99 179 1199.81 179.078 1203.32 179.156C1203.79 178.688 1203.79 177.05 1203.32 176.582C1197.86 176.348 1196.54 175.958 1196.54 169.484ZM1216.42 179H1232.95C1235.14 179 1242.31 179.156 1242.31 179.156C1243.09 175.256 1243.87 170.186 1244.34 166.13C1243.56 165.818 1242.7 165.662 1241.77 165.74C1240.21 171.356 1237.32 175.958 1229.05 175.958H1224.14C1221.1 175.958 1219.69 174.476 1219.69 170.498V138.206C1219.69 131.732 1221.02 131.342 1226.48 131.108C1226.95 130.64 1226.95 129.002 1226.48 128.534C1222.97 128.612 1219.3 128.69 1216.34 128.69C1213.45 128.69 1209.86 128.612 1206.28 128.534C1205.81 129.002 1205.81 130.64 1206.28 131.108C1211.74 131.342 1213.06 131.732 1213.06 138.206V169.484C1213.06 175.958 1211.74 176.348 1206.28 176.582C1205.81 177.05 1205.81 178.688 1206.28 179.156C1209.32 179.078 1213.76 179 1216.42 179Z" fill="black"/>
<path d="M262.898 261.448V224.008C262.898 221.278 265.628 220.186 269.45 220.186C286.298 220.186 291.836 233.836 291.836 245.848C291.836 261.604 282.398 265.504 271.4 265.504C263.756 265.504 262.898 263.944 262.898 261.448ZM259.544 217.69C256.736 217.69 252.602 217.612 249.482 217.534C249.014 218.002 249.014 219.64 249.482 220.108C254.942 220.342 256.268 220.732 256.268 227.206V258.484C256.268 264.958 254.942 265.348 249.482 265.582C249.014 266.05 249.014 267.688 249.482 268.156C252.524 268.078 256.658 268 259.622 268C262.508 268 265.784 268.156 273.818 268.156C284.816 268.156 299.324 263.164 299.324 243.976C299.324 229.468 287.39 217.534 272.414 217.534C266.876 217.534 262.586 217.69 259.544 217.69ZM324.609 239.842H317.511V225.802C317.511 222.37 318.447 220.81 322.659 220.81H328.509C334.359 220.81 335.607 223.93 337.323 229.312C338.259 229.468 339.117 229.312 339.897 228.922C339.507 225.724 338.337 218.236 338.181 217.612C338.181 217.456 338.103 217.378 337.869 217.378C336.543 217.612 335.919 217.69 334.047 217.69H314.157C311.739 217.69 307.215 217.612 304.095 217.534C303.627 218.002 303.627 219.64 304.095 220.108C309.555 220.342 310.881 220.732 310.881 227.206V258.484C310.881 264.958 309.555 265.348 304.095 265.582C303.627 266.05 303.627 267.688 304.095 268.156C306.981 268.078 311.661 268 314.235 268H331.005C334.749 268 340.989 268.156 340.989 268.156C342.081 264.256 343.251 259.108 343.875 255.13C343.017 254.74 342.159 254.506 341.145 254.74C339.585 260.356 336.855 264.958 330.927 264.958H321.879C318.603 264.958 317.511 263.71 317.511 260.044V242.806H324.609C331.239 242.806 331.473 244.6 331.707 248.11C332.175 248.578 333.813 248.578 334.281 248.11C334.203 246.082 334.125 243.976 334.125 241.246C334.125 239.062 334.203 236.41 334.281 234.538C333.813 234.07 332.175 234.07 331.707 234.538C331.473 238.828 331.239 239.842 324.609 239.842ZM387.683 242.806C394.313 242.806 394.547 244.6 394.781 248.11C395.249 248.578 396.887 248.578 397.355 248.11C397.277 246.16 397.199 243.976 397.199 241.246C397.199 238.672 397.277 236.566 397.355 234.538C396.887 234.07 395.249 234.07 394.781 234.538C394.547 238.828 394.313 239.842 387.683 239.842H380.429V225.802C380.429 221.59 381.365 220.81 384.797 220.81H388.307C396.575 220.81 398.525 223.93 400.241 229.312C401.177 229.312 402.035 229.156 402.659 228.922C402.191 225.724 401.021 218.236 400.943 217.612C400.865 217.456 400.787 217.378 400.631 217.378C399.227 217.69 398.915 217.69 396.965 217.69H377.075C374.579 217.69 370.133 217.612 367.013 217.534C366.545 218.002 366.545 219.64 367.013 220.108C372.473 220.342 373.799 220.732 373.799 227.206V258.484C373.799 264.958 372.473 265.348 367.013 265.582C366.545 266.05 366.545 267.688 367.013 268.156C369.743 268.078 373.643 268 377.153 268C380.663 268 384.485 268.078 387.215 268.156C387.683 267.688 387.683 266.05 387.215 265.582C381.755 265.348 380.429 264.958 380.429 258.484V242.806H387.683ZM418.365 258.484V227.206C418.365 220.732 419.691 220.342 425.151 220.108C425.619 219.64 425.619 218.002 425.151 217.534C421.719 217.612 417.975 217.69 415.011 217.69C412.359 217.69 408.615 217.612 404.949 217.534C404.481 218.002 404.481 219.64 404.949 220.108C410.409 220.342 411.735 220.732 411.735 227.206V258.484C411.735 264.958 410.409 265.348 404.949 265.582C404.481 266.05 404.481 267.688 404.949 268.156C408.459 268.078 412.203 268 415.089 268C417.819 268 421.641 268.078 425.151 268.156C425.619 267.688 425.619 266.05 425.151 265.582C419.691 265.348 418.365 264.958 418.365 258.484ZM419.847 204.118L410.175 210.826C409.161 211.528 409.005 211.918 409.005 212.464C409.005 213.088 409.473 213.634 410.175 213.634C410.877 213.634 411.813 213.4 413.451 212.698L424.683 208.174C423.669 206.536 422.031 205.21 419.847 204.118ZM457.355 218.782C452.831 218.158 453.065 216.676 445.421 216.676C437.543 216.676 430.601 221.902 430.601 230.17C430.601 238.438 437.309 242.182 444.173 244.756C448.931 246.628 454.703 248.812 454.703 256.378C454.703 262.696 451.115 265.972 444.953 265.972C437.621 265.972 432.941 262.696 431.225 254.896C430.289 254.584 429.431 254.74 428.729 255.13C429.041 261.136 429.353 263.164 430.289 266.986C435.203 266.986 437.309 268.78 444.251 268.78C447.839 268.78 451.193 267.922 453.923 266.284C458.369 263.476 461.255 258.64 461.255 253.648C461.255 245.38 454.937 241.714 448.541 239.374C443.939 237.58 436.139 234.694 436.139 228.064C436.139 223.696 440.117 219.328 444.641 219.328C452.285 219.328 454.703 224.164 456.263 229.312C457.043 229.468 458.057 229.39 458.759 228.844C458.525 225.1 458.213 222.916 457.355 218.782ZM479.379 258.484V227.206C479.379 220.732 480.704 220.342 486.165 220.108C486.632 219.64 486.632 218.002 486.165 217.534C482.733 217.612 478.988 217.69 476.024 217.69C473.372 217.69 469.628 217.612 465.962 217.534C465.494 218.002 465.494 219.64 465.962 220.108C471.422 220.342 472.748 220.732 472.748 227.206V258.484C472.748 264.958 471.422 265.348 465.962 265.582C465.494 266.05 465.494 267.688 465.962 268.156C469.472 268.078 473.216 268 476.102 268C478.833 268 482.655 268.078 486.165 268.156C486.632 267.688 486.632 266.05 486.165 265.582C480.704 265.348 479.379 264.958 479.379 258.484ZM515.483 268.78C523.049 268.78 529.991 265.192 535.295 258.25C534.905 257.548 534.359 257.08 533.501 257.08C527.963 263.164 522.659 265.582 515.405 265.582C504.875 265.582 497.621 253.726 497.621 242.338C497.621 235.63 499.337 230.014 502.223 226.504C506.123 221.746 510.647 219.562 514.703 219.562C525.467 219.562 529.757 225.958 531.785 232.666C532.721 232.978 533.423 232.744 534.359 232.276C533.969 228.22 533.423 224.476 532.643 220.186C528.665 219.796 525.155 216.676 515.561 216.676C508.931 216.676 503.393 219.094 498.791 223.306C493.565 228.064 490.523 235.708 490.523 243.82C490.523 257.392 498.713 268.78 515.483 268.78ZM558.577 245.926C556.861 245.926 556.315 245.692 556.549 244.912L564.583 224.71H565.051L572.383 245.926H558.577ZM550.153 261.838L554.443 250.528C554.833 249.514 555.301 249.202 557.173 249.202H573.631L578.155 262.384C579.013 265.114 576.049 265.348 572.383 265.582C571.915 266.05 571.915 267.688 572.383 268.156C575.269 268.078 579.559 268 582.601 268C585.799 268 588.763 268.078 591.493 268.156C591.961 267.688 591.961 266.05 591.493 265.582C588.451 265.348 585.799 265.114 584.473 261.292L568.405 216.676C567.235 217.378 565.129 218.236 564.115 218.236L546.409 260.044C544.381 264.88 541.963 265.348 538.609 265.582C538.141 266.05 538.141 267.688 538.609 268.156C540.637 268.078 543.133 268 545.551 268C548.749 268 552.649 268.078 555.535 268.156C556.003 267.688 556.003 266.05 555.535 265.582C552.571 265.426 548.905 265.114 550.153 261.838ZM638.083 258.484V247.954C638.083 245.614 638.161 244.288 639.409 241.948L648.769 225.1C650.953 221.2 652.669 220.498 656.179 220.108C656.647 219.64 656.647 218.002 656.179 217.534C653.995 217.612 651.499 217.69 649.705 217.69C647.911 217.69 645.103 217.612 642.607 217.534C642.139 218.002 642.139 219.64 642.607 220.108C646.039 220.342 647.287 221.122 645.571 224.242L636.991 240.544C636.367 241.792 635.977 241.636 635.275 240.388L626.227 224.476C624.355 221.122 624.667 220.342 629.035 220.108C629.503 219.64 629.503 218.002 629.035 217.534C626.227 217.612 623.263 217.69 620.143 217.69C617.101 217.69 614.527 217.612 612.187 217.534C611.719 218.002 611.797 219.64 612.265 220.108C615.541 220.342 616.867 220.81 619.519 225.334L629.815 242.572C631.141 244.912 631.453 245.692 631.453 248.578V258.484C631.453 264.958 630.127 265.348 623.887 265.582C623.419 266.05 623.419 267.688 623.887 268.156C627.709 268.078 631.765 268 634.807 268C637.771 268 641.749 268.078 645.649 268.156C646.117 267.688 646.117 266.05 645.649 265.582C639.409 265.348 638.083 264.958 638.083 258.484ZM727.798 258.952C728.188 265.27 727.954 265.348 722.884 265.582C722.416 266.05 722.416 267.688 722.884 268.156C725.77 268.078 728.89 268 731.23 268C733.57 268 737.08 268.078 739.732 268.156C740.2 267.688 740.2 266.05 739.732 265.582C734.428 265.348 734.116 265.036 733.726 258.562L731.386 225.724C731.074 221.512 731.464 220.42 736.768 220.108C737.236 219.64 737.236 218.002 736.768 217.534L726.55 217.69L710.014 257.236C709.702 258.016 709.468 258.328 709.312 258.328C709.156 258.328 708.922 257.938 708.688 257.314L692.698 217.69L681.388 217.534C680.92 218.002 680.92 219.64 681.388 220.108C686.77 220.42 687.238 220.576 686.692 226.426L683.494 258.562C683.104 263.242 682.168 265.192 677.722 265.582C677.254 266.05 677.254 267.688 677.722 268.156C680.062 268.078 682.558 268 684.43 268C686.302 268 689.422 268.078 691.762 268.156C692.23 267.688 692.23 266.05 691.762 265.582C686.614 265.192 686.146 262.852 686.614 258.406L689.578 227.128H689.734L705.88 267.61C706.036 268.234 706.582 268.78 707.05 268.78C707.518 268.78 707.83 268.234 708.142 267.61L725.692 226.348H725.848L727.798 258.952ZM762.108 245.926C760.392 245.926 759.846 245.692 760.08 244.912L768.114 224.71H768.582L775.914 245.926H762.108ZM753.684 261.838L757.974 250.528C758.364 249.514 758.832 249.202 760.704 249.202H777.162L781.686 262.384C782.544 265.114 779.58 265.348 775.914 265.582C775.446 266.05 775.446 267.688 775.914 268.156C778.8 268.078 783.09 268 786.132 268C789.33 268 792.294 268.078 795.024 268.156C795.492 267.688 795.492 266.05 795.024 265.582C791.982 265.348 789.33 265.114 788.004 261.292L771.936 216.676C770.766 217.378 768.66 218.236 767.646 218.236L749.94 260.044C747.912 264.88 745.494 265.348 742.14 265.582C741.672 266.05 741.672 267.688 742.14 268.156C744.168 268.078 746.664 268 749.082 268C752.28 268 756.18 268.078 759.066 268.156C759.534 267.688 759.534 266.05 759.066 265.582C756.102 265.426 752.436 265.114 753.684 261.838ZM818.177 258.484V228.688C818.177 223.696 818.957 220.732 821.765 220.732H823.481C829.331 220.732 832.997 222.76 834.323 228.766C835.181 228.766 836.273 228.688 836.975 228.376C836.429 224.788 836.039 220.81 835.961 217.3C835.961 217.222 835.805 217.066 835.727 217.066C833.075 217.3 824.417 217.69 818.255 217.69H811.547C805.541 217.69 796.337 217.3 793.373 217.066C793.217 217.066 793.061 217.222 793.061 217.3C792.749 220.81 791.969 224.866 791.111 228.61C791.891 228.922 792.827 229 793.763 229C795.323 222.76 798.911 220.732 804.059 220.732H807.881C810.767 220.732 811.547 223.696 811.547 228.454V258.484C811.547 264.958 810.221 265.348 803.981 265.582C803.513 266.05 803.513 267.688 803.981 268.156C807.803 268.078 811.703 268 814.901 268C817.865 268 821.843 268.078 825.743 268.156C826.211 267.688 826.211 266.05 825.743 265.582C819.503 265.348 818.177 264.958 818.177 258.484ZM859.336 239.842H852.238V225.802C852.238 222.37 853.174 220.81 857.386 220.81H863.236C869.086 220.81 870.334 223.93 872.05 229.312C872.986 229.468 873.844 229.312 874.624 228.922C874.234 225.724 873.064 218.236 872.908 217.612C872.908 217.456 872.83 217.378 872.596 217.378C871.27 217.612 870.646 217.69 868.774 217.69H848.884C846.466 217.69 841.942 217.612 838.822 217.534C838.354 218.002 838.354 219.64 838.822 220.108C844.282 220.342 845.608 220.732 845.608 227.206V258.484C845.608 264.958 844.282 265.348 838.822 265.582C838.354 266.05 838.354 267.688 838.822 268.156C841.708 268.078 846.388 268 848.962 268H865.732C869.476 268 875.716 268.156 875.716 268.156C876.808 264.256 877.978 259.108 878.602 255.13C877.744 254.74 876.886 254.506 875.872 254.74C874.312 260.356 871.582 264.958 865.654 264.958H856.606C853.33 264.958 852.238 263.71 852.238 260.044V242.806H859.336C865.966 242.806 866.2 244.6 866.434 248.11C866.902 248.578 868.54 248.578 869.008 248.11C868.93 246.082 868.852 243.976 868.852 241.246C868.852 239.062 868.93 236.41 869.008 234.538C868.54 234.07 866.902 234.07 866.434 234.538C866.2 238.828 865.966 239.842 859.336 239.842ZM932.472 258.952C932.862 265.27 932.628 265.348 927.558 265.582C927.09 266.05 927.09 267.688 927.558 268.156C930.444 268.078 933.564 268 935.904 268C938.244 268 941.754 268.078 944.406 268.156C944.874 267.688 944.874 266.05 944.406 265.582C939.102 265.348 938.79 265.036 938.4 258.562L936.06 225.724C935.748 221.512 936.138 220.42 941.442 220.108C941.91 219.64 941.91 218.002 941.442 217.534L931.224 217.69L914.688 257.236C914.376 258.016 914.142 258.328 913.986 258.328C913.83 258.328 913.596 257.938 913.362 257.314L897.372 217.69L886.062 217.534C885.594 218.002 885.594 219.64 886.062 220.108C891.444 220.42 891.912 220.576 891.366 226.426L888.168 258.562C887.778 263.242 886.842 265.192 882.396 265.582C881.928 266.05 881.928 267.688 882.396 268.156C884.736 268.078 887.232 268 889.104 268C890.976 268 894.096 268.078 896.436 268.156C896.904 267.688 896.904 266.05 896.436 265.582C891.288 265.192 890.82 262.852 891.288 258.406L894.252 227.128H894.408L910.554 267.61C910.71 268.234 911.256 268.78 911.724 268.78C912.192 268.78 912.504 268.234 912.816 267.61L930.366 226.348H930.522L932.472 258.952ZM966.782 245.926C965.066 245.926 964.52 245.692 964.754 244.912L972.788 224.71H973.256L980.588 245.926H966.782ZM958.358 261.838L962.648 250.528C963.038 249.514 963.506 249.202 965.378 249.202H981.836L986.36 262.384C987.218 265.114 984.254 265.348 980.588 265.582C980.12 266.05 980.12 267.688 980.588 268.156C983.474 268.078 987.764 268 990.806 268C994.004 268 996.968 268.078 999.698 268.156C1000.17 267.688 1000.17 266.05 999.698 265.582C996.656 265.348 994.004 265.114 992.678 261.292L976.61 216.676C975.44 217.378 973.334 218.236 972.32 218.236L954.614 260.044C952.586 264.88 950.168 265.348 946.814 265.582C946.346 266.05 946.346 267.688 946.814 268.156C948.842 268.078 951.338 268 953.756 268C956.954 268 960.854 268.078 963.74 268.156C964.208 267.688 964.208 266.05 963.74 265.582C960.776 265.426 957.11 265.114 958.358 261.838ZM978.794 204.04L969.122 210.748C968.108 211.45 967.952 211.84 967.952 212.386C967.952 213.01 968.42 213.556 969.122 213.556C969.824 213.556 970.76 213.322 972.398 212.62L983.63 208.096C982.616 206.458 980.978 205.132 978.794 204.04ZM1022.85 258.484V228.688C1022.85 223.696 1023.63 220.732 1026.44 220.732H1028.15C1034 220.732 1037.67 222.76 1039 228.766C1039.85 228.766 1040.95 228.688 1041.65 228.376C1041.1 224.788 1040.71 220.81 1040.63 217.3C1040.63 217.222 1040.48 217.066 1040.4 217.066C1037.75 217.3 1029.09 217.69 1022.93 217.69H1016.22C1010.21 217.69 1001.01 217.3 998.047 217.066C997.891 217.066 997.735 217.222 997.735 217.3C997.423 220.81 996.643 224.866 995.785 228.61C996.565 228.922 997.501 229 998.437 229C999.997 222.76 1003.58 220.732 1008.73 220.732H1012.55C1015.44 220.732 1016.22 223.696 1016.22 228.454V258.484C1016.22 264.958 1014.89 265.348 1008.65 265.582C1008.19 266.05 1008.19 267.688 1008.65 268.156C1012.48 268.078 1016.38 268 1019.57 268C1022.54 268 1026.52 268.078 1030.42 268.156C1030.88 267.688 1030.88 266.05 1030.42 265.582C1024.18 265.348 1022.85 264.958 1022.85 258.484ZM1056.99 258.484V227.206C1056.99 220.732 1058.32 220.342 1063.78 220.108C1064.24 219.64 1064.24 218.002 1063.78 217.534C1060.34 217.612 1056.6 217.69 1053.64 217.69C1050.98 217.69 1047.24 217.612 1043.57 217.534C1043.11 218.002 1043.11 219.64 1043.57 220.108C1049.03 220.342 1050.36 220.732 1050.36 227.206V258.484C1050.36 264.958 1049.03 265.348 1043.57 265.582C1043.11 266.05 1043.11 267.688 1043.57 268.156C1047.08 268.078 1050.83 268 1053.71 268C1056.44 268 1060.27 268.078 1063.78 268.156C1064.24 267.688 1064.24 266.05 1063.78 265.582C1058.32 265.348 1056.99 264.958 1056.99 258.484ZM1093.09 268.78C1100.66 268.78 1107.6 265.192 1112.91 258.25C1112.52 257.548 1111.97 257.08 1111.11 257.08C1105.57 263.164 1100.27 265.582 1093.02 265.582C1082.49 265.582 1075.23 253.726 1075.23 242.338C1075.23 235.63 1076.95 230.014 1079.83 226.504C1083.73 221.746 1088.26 219.562 1092.31 219.562C1103.08 219.562 1107.37 225.958 1109.4 232.666C1110.33 232.978 1111.03 232.744 1111.97 232.276C1111.58 228.22 1111.03 224.476 1110.25 220.186C1106.28 219.796 1102.77 216.676 1093.17 216.676C1086.54 216.676 1081 219.094 1076.4 223.306C1071.18 228.064 1068.13 235.708 1068.13 243.82C1068.13 257.392 1076.32 268.78 1093.09 268.78ZM1136.19 245.926C1134.47 245.926 1133.93 245.692 1134.16 244.912L1142.19 224.71H1142.66L1149.99 245.926H1136.19ZM1127.76 261.838L1132.05 250.528C1132.44 249.514 1132.91 249.202 1134.78 249.202H1151.24L1155.77 262.384C1156.62 265.114 1153.66 265.348 1149.99 265.582C1149.53 266.05 1149.53 267.688 1149.99 268.156C1152.88 268.078 1157.17 268 1160.21 268C1163.41 268 1166.37 268.078 1169.1 268.156C1169.57 267.688 1169.57 266.05 1169.1 265.582C1166.06 265.348 1163.41 265.114 1162.08 261.292L1146.02 216.676C1144.85 217.378 1142.74 218.236 1141.73 218.236L1124.02 260.044C1121.99 264.88 1119.57 265.348 1116.22 265.582C1115.75 266.05 1115.75 267.688 1116.22 268.156C1118.25 268.078 1120.74 268 1123.16 268C1126.36 268 1130.26 268.078 1133.15 268.156C1133.61 267.688 1133.61 266.05 1133.15 265.582C1130.18 265.426 1126.52 265.114 1127.76 261.838ZM1200.64 218.782C1196.12 218.158 1196.35 216.676 1188.71 216.676C1180.83 216.676 1173.89 221.902 1173.89 230.17C1173.89 238.438 1180.59 242.182 1187.46 244.756C1192.22 246.628 1197.99 248.812 1197.99 256.378C1197.99 262.696 1194.4 265.972 1188.24 265.972C1180.91 265.972 1176.23 262.696 1174.51 254.896C1173.57 254.584 1172.72 254.74 1172.01 255.13C1172.33 261.136 1172.64 263.164 1173.57 266.986C1178.49 266.986 1180.59 268.78 1187.54 268.78C1191.12 268.78 1194.48 267.922 1197.21 266.284C1201.65 263.476 1204.54 258.64 1204.54 253.648C1204.54 245.38 1198.22 241.714 1191.83 239.374C1187.22 237.58 1179.42 234.694 1179.42 228.064C1179.42 223.696 1183.4 219.328 1187.93 219.328C1195.57 219.328 1197.99 224.164 1199.55 229.312C1200.33 229.468 1201.34 229.39 1202.04 228.844C1201.81 225.1 1201.5 222.916 1200.64 218.782Z" fill="black"/>
<rect x="185" y="77" width="1086" height="17" fill="black"/>
<rect x="185" y="302" width="1086" height="17" fill="black"/>
</svg>
