<svg width="2410" height="479" viewBox="0 0 2410 479" fill="none" xmlns="http://www.w3.org/2000/svg">
<path d="M745.735 344.122V281.962C745.735 277.429 750.267 275.616 756.613 275.616C784.585 275.616 793.779 298.279 793.779 318.222C793.779 344.381 778.11 350.856 759.85 350.856C747.159 350.856 745.735 348.266 745.735 344.122ZM740.166 271.472C735.504 271.472 728.641 271.343 723.461 271.213C722.684 271.99 722.684 274.71 723.461 275.487C732.526 275.875 734.727 276.523 734.727 287.271V339.201C734.727 349.949 732.526 350.597 723.461 350.985C722.684 351.762 722.684 354.482 723.461 355.259C728.511 355.13 735.375 355 740.296 355C745.087 355 750.526 355.259 763.865 355.259C782.124 355.259 806.211 346.971 806.211 315.114C806.211 291.027 786.397 271.213 761.534 271.213C752.339 271.213 745.217 271.472 740.166 271.472ZM855.702 308.25H843.918V284.94C843.918 279.242 845.472 276.652 852.465 276.652H862.177C871.89 276.652 873.962 281.833 876.811 290.768C878.365 291.027 879.789 290.768 881.084 290.12C880.437 284.811 878.494 272.379 878.235 271.343C878.235 271.084 878.106 270.954 877.717 270.954C875.516 271.343 874.48 271.472 871.372 271.472H838.349C834.335 271.472 826.824 271.343 821.644 271.213C820.867 271.99 820.867 274.71 821.644 275.487C830.709 275.875 832.91 276.523 832.91 287.271V339.201C832.91 349.949 830.709 350.597 821.644 350.985C820.867 351.762 820.867 354.482 821.644 355.259C826.435 355.13 834.205 355 838.479 355H866.321C872.537 355 882.897 355.259 882.897 355.259C884.71 348.784 886.653 340.237 887.689 333.632C886.264 332.985 884.84 332.596 883.156 332.985C880.566 342.309 876.034 349.949 866.192 349.949H851.17C845.731 349.949 843.918 347.877 843.918 341.791V313.171H855.702C866.71 313.171 867.098 316.15 867.487 321.977C868.264 322.754 870.983 322.754 871.76 321.977C871.631 318.61 871.501 315.114 871.501 310.581C871.501 306.955 871.631 302.552 871.76 299.444C870.983 298.667 868.264 298.667 867.487 299.444C867.098 306.567 866.71 308.25 855.702 308.25ZM975.443 313.171C986.451 313.171 986.839 316.15 987.228 321.977C988.005 322.754 990.724 322.754 991.501 321.977C991.372 318.74 991.242 315.114 991.242 310.581C991.242 306.308 991.372 302.811 991.501 299.444C990.724 298.667 988.005 298.667 987.228 299.444C986.839 306.567 986.451 308.25 975.443 308.25H963.4V284.94C963.4 277.947 964.954 276.652 970.652 276.652H976.479C990.206 276.652 993.444 281.833 996.293 290.768C997.847 290.768 999.271 290.509 1000.31 290.12C999.53 284.811 997.588 272.379 997.458 271.343C997.329 271.084 997.199 270.954 996.94 270.954C994.609 271.472 994.091 271.472 990.854 271.472H957.831C953.687 271.472 946.306 271.343 941.126 271.213C940.349 271.99 940.349 274.71 941.126 275.487C950.191 275.875 952.392 276.523 952.392 287.271V339.201C952.392 349.949 950.191 350.597 941.126 350.985C940.349 351.762 940.349 354.482 941.126 355.259C945.658 355.13 952.133 355 957.961 355C963.788 355 970.134 355.13 974.666 355.259C975.443 354.482 975.443 351.762 974.666 350.985C965.601 350.597 963.4 349.949 963.4 339.201V313.171H975.443ZM1033.89 339.201V287.271C1033.89 276.523 1036.09 275.875 1045.16 275.487C1045.94 274.71 1045.94 271.99 1045.16 271.213C1039.46 271.343 1033.25 271.472 1028.32 271.472C1023.92 271.472 1017.71 271.343 1011.62 271.213C1010.84 271.99 1010.84 274.71 1011.62 275.487C1020.68 275.875 1022.89 276.523 1022.89 287.271V339.201C1022.89 349.949 1020.68 350.597 1011.62 350.985C1010.84 351.762 1010.84 354.482 1011.62 355.259C1017.45 355.13 1023.66 355 1028.45 355C1032.99 355 1039.33 355.13 1045.16 355.259C1045.94 354.482 1045.94 351.762 1045.16 350.985C1036.09 350.597 1033.89 349.949 1033.89 339.201ZM1036.35 248.939L1020.3 260.076C1018.61 261.242 1018.35 261.889 1018.35 262.796C1018.35 263.832 1019.13 264.738 1020.3 264.738C1021.46 264.738 1023.02 264.35 1025.73 263.184L1044.38 255.673C1042.7 252.954 1039.98 250.752 1036.35 248.939ZM1106.14 273.285C1098.63 272.249 1099.02 269.789 1086.32 269.789C1073.25 269.789 1061.72 278.465 1061.72 292.192C1061.72 305.919 1072.86 312.135 1084.25 316.409C1092.15 319.517 1101.74 323.143 1101.74 335.704C1101.74 346.194 1095.78 351.633 1085.55 351.633C1073.37 351.633 1065.6 346.194 1062.76 333.244C1061.2 332.726 1059.78 332.985 1058.61 333.632C1059.13 343.604 1059.65 346.971 1061.2 353.316C1069.36 353.316 1072.86 356.295 1084.38 356.295C1090.34 356.295 1095.91 354.87 1100.44 352.151C1107.82 347.489 1112.61 339.46 1112.61 331.172C1112.61 317.445 1102.12 311.358 1091.5 307.473C1083.86 304.495 1070.91 299.703 1070.91 288.696C1070.91 281.444 1077.52 274.192 1085.03 274.192C1097.72 274.192 1101.74 282.221 1104.33 290.768C1105.62 291.027 1107.3 290.897 1108.47 289.991C1108.08 283.775 1107.56 280.149 1106.14 273.285ZM1150.21 339.201V287.271C1150.21 276.523 1152.42 275.875 1161.48 275.487C1162.26 274.71 1162.26 271.99 1161.48 271.213C1155.78 271.343 1149.57 271.472 1144.65 271.472C1140.24 271.472 1134.03 271.343 1127.94 271.213C1127.16 271.99 1127.16 274.71 1127.94 275.487C1137 275.875 1139.21 276.523 1139.21 287.271V339.201C1139.21 349.949 1137 350.597 1127.94 350.985C1127.16 351.762 1127.16 354.482 1127.94 355.259C1133.77 355.13 1139.98 355 1144.77 355C1149.31 355 1155.65 355.13 1161.48 355.259C1162.26 354.482 1162.26 351.762 1161.48 350.985C1152.42 350.597 1150.21 349.949 1150.21 339.201ZM1217.67 356.295C1230.23 356.295 1241.75 350.338 1250.56 338.812C1249.91 337.647 1249.01 336.87 1247.58 336.87C1238.39 346.971 1229.58 350.985 1217.54 350.985C1200.05 350.985 1188.01 331.301 1188.01 312.394C1188.01 301.257 1190.86 291.933 1195.65 286.106C1202.13 278.206 1209.64 274.58 1216.37 274.58C1234.24 274.58 1241.37 285.199 1244.73 296.336C1246.29 296.854 1247.45 296.466 1249.01 295.689C1248.36 288.955 1247.45 282.739 1246.16 275.616C1239.55 274.969 1233.72 269.789 1217.8 269.789C1206.79 269.789 1197.59 273.803 1189.95 280.796C1181.28 288.696 1176.23 301.387 1176.23 314.855C1176.23 337.388 1189.82 356.295 1217.67 356.295ZM1296.72 318.351C1293.88 318.351 1292.97 317.963 1293.36 316.668L1306.7 283.127H1307.47L1319.65 318.351H1296.72ZM1282.74 344.769L1289.86 325.992C1290.51 324.308 1291.29 323.79 1294.39 323.79H1321.72L1329.23 345.676C1330.65 350.208 1325.73 350.597 1319.65 350.985C1318.87 351.762 1318.87 354.482 1319.65 355.259C1324.44 355.13 1331.56 355 1336.61 355C1341.92 355 1346.84 355.13 1351.37 355.259C1352.15 354.482 1352.15 351.762 1351.37 350.985C1346.32 350.597 1341.92 350.208 1339.72 343.863L1313.04 269.789C1311.1 270.954 1307.6 272.379 1305.92 272.379L1276.52 341.791C1273.16 349.82 1269.14 350.597 1263.57 350.985C1262.8 351.762 1262.8 354.482 1263.57 355.259C1266.94 355.13 1271.08 355 1275.1 355C1280.41 355 1286.88 355.13 1291.67 355.259C1292.45 354.482 1292.45 351.762 1291.67 350.985C1286.75 350.727 1280.67 350.208 1282.74 344.769ZM1443.75 339.201V321.719C1443.75 317.833 1443.88 315.632 1445.95 311.747L1461.49 283.775C1465.12 277.3 1467.96 276.134 1473.79 275.487C1474.57 274.71 1474.57 271.99 1473.79 271.213C1470.17 271.343 1466.02 271.472 1463.04 271.472C1460.06 271.472 1455.4 271.343 1451.26 271.213C1450.48 271.99 1450.48 274.71 1451.26 275.487C1456.96 275.875 1459.03 277.17 1456.18 282.35L1441.93 309.416C1440.9 311.488 1440.25 311.229 1439.09 309.157L1424.06 282.739C1420.96 277.17 1421.47 275.875 1428.73 275.487C1429.5 274.71 1429.5 271.99 1428.73 271.213C1424.06 271.343 1419.14 271.472 1413.96 271.472C1408.91 271.472 1404.64 271.343 1400.75 271.213C1399.98 271.99 1400.11 274.71 1400.88 275.487C1406.32 275.875 1408.52 276.652 1412.93 284.163L1430.02 312.783C1432.22 316.668 1432.74 317.963 1432.74 322.754V339.201C1432.74 349.949 1430.54 350.597 1420.18 350.985C1419.4 351.762 1419.4 354.482 1420.18 355.259C1426.52 355.13 1433.26 355 1438.31 355C1443.23 355 1449.83 355.13 1456.31 355.259C1457.09 354.482 1457.09 351.762 1456.31 350.985C1445.95 350.597 1443.75 349.949 1443.75 339.201ZM1607.72 339.978C1608.37 350.467 1607.98 350.597 1599.56 350.985C1598.78 351.762 1598.78 354.482 1599.56 355.259C1604.35 355.13 1609.53 355 1613.42 355C1617.3 355 1623.13 355.13 1627.53 355.259C1628.31 354.482 1628.31 351.762 1627.53 350.985C1618.73 350.597 1618.21 350.079 1617.56 339.33L1613.68 284.811C1613.16 277.818 1613.81 276.005 1622.61 275.487C1623.39 274.71 1623.39 271.99 1622.61 271.213L1605.65 271.472L1578.19 337.129C1577.68 338.424 1577.29 338.942 1577.03 338.942C1576.77 338.942 1576.38 338.294 1575.99 337.258L1549.44 271.472L1530.67 271.213C1529.89 271.99 1529.89 274.71 1530.67 275.487C1539.6 276.005 1540.38 276.264 1539.47 285.976L1534.16 339.33C1533.52 347.1 1531.96 350.338 1524.58 350.985C1523.8 351.762 1523.8 354.482 1524.58 355.259C1528.47 355.13 1532.61 355 1535.72 355C1538.83 355 1544.01 355.13 1547.89 355.259C1548.67 354.482 1548.67 351.762 1547.89 350.985C1539.34 350.338 1538.57 346.453 1539.34 339.071L1544.26 287.142H1544.52L1571.33 354.352C1571.59 355.389 1572.5 356.295 1573.27 356.295C1574.05 356.295 1574.57 355.389 1575.09 354.352L1604.22 285.847H1604.48L1607.72 339.978ZM1672.19 318.351C1669.34 318.351 1668.44 317.963 1668.83 316.668L1682.17 283.127H1682.94L1695.12 318.351H1672.19ZM1658.21 344.769L1665.33 325.992C1665.98 324.308 1666.75 323.79 1669.86 323.79H1697.19L1704.7 345.676C1706.12 350.208 1701.2 350.597 1695.12 350.985C1694.34 351.762 1694.34 354.482 1695.12 355.259C1699.91 355.13 1707.03 355 1712.08 355C1717.39 355 1722.31 355.13 1726.84 355.259C1727.62 354.482 1727.62 351.762 1726.84 350.985C1721.79 350.597 1717.39 350.208 1715.19 343.863L1688.51 269.789C1686.57 270.954 1683.07 272.379 1681.39 272.379L1651.99 341.791C1648.62 349.82 1644.61 350.597 1639.04 350.985C1638.26 351.762 1638.26 354.482 1639.04 355.259C1642.41 355.13 1646.55 355 1650.57 355C1655.88 355 1662.35 355.13 1667.14 355.259C1667.92 354.482 1667.92 351.762 1667.14 350.985C1662.22 350.727 1656.14 350.208 1658.21 344.769ZM1772.79 339.201V289.732C1772.79 281.444 1774.09 276.523 1778.75 276.523H1781.6C1791.31 276.523 1797.4 279.89 1799.6 289.861C1801.02 289.861 1802.84 289.732 1804 289.214C1803.1 283.257 1802.45 276.652 1802.32 270.825C1802.32 270.695 1802.06 270.436 1801.93 270.436C1797.53 270.825 1783.15 271.472 1772.92 271.472H1761.79C1751.81 271.472 1736.53 270.825 1731.61 270.436C1731.35 270.436 1731.09 270.695 1731.09 270.825C1730.58 276.652 1729.28 283.386 1727.86 289.603C1729.15 290.12 1730.71 290.25 1732.26 290.25C1734.85 279.89 1740.81 276.523 1749.35 276.523H1755.7C1760.49 276.523 1761.79 281.444 1761.79 289.343V339.201C1761.79 349.949 1759.58 350.597 1749.22 350.985C1748.45 351.762 1748.45 354.482 1749.22 355.259C1755.57 355.13 1762.05 355 1767.35 355C1772.28 355 1778.88 355.13 1785.36 355.259C1786.13 354.482 1786.13 351.762 1785.36 350.985C1775 350.597 1772.79 349.949 1772.79 339.201ZM1848.64 308.25H1836.86V284.94C1836.86 279.242 1838.41 276.652 1845.4 276.652H1855.11C1864.83 276.652 1866.9 281.833 1869.75 290.768C1871.3 291.027 1872.73 290.768 1874.02 290.12C1873.37 284.811 1871.43 272.379 1871.17 271.343C1871.17 271.084 1871.04 270.954 1870.65 270.954C1868.45 271.343 1867.42 271.472 1864.31 271.472H1831.29C1827.27 271.472 1819.76 271.343 1814.58 271.213C1813.8 271.99 1813.8 274.71 1814.58 275.487C1823.65 275.875 1825.85 276.523 1825.85 287.271V339.201C1825.85 349.949 1823.65 350.597 1814.58 350.985C1813.8 351.762 1813.8 354.482 1814.58 355.259C1819.37 355.13 1827.14 355 1831.42 355H1859.26C1865.47 355 1875.83 355.259 1875.83 355.259C1877.65 348.784 1879.59 340.237 1880.63 333.632C1879.2 332.985 1877.78 332.596 1876.09 332.985C1873.5 342.309 1868.97 349.949 1859.13 349.949H1844.11C1838.67 349.949 1836.86 347.877 1836.86 341.791V313.171H1848.64C1859.65 313.171 1860.04 316.15 1860.42 321.977C1861.2 322.754 1863.92 322.754 1864.7 321.977C1864.57 318.61 1864.44 315.114 1864.44 310.581C1864.44 306.955 1864.57 302.552 1864.7 299.444C1863.92 298.667 1861.2 298.667 1860.42 299.444C1860.04 306.567 1859.65 308.25 1848.64 308.25ZM1977.57 339.978C1978.22 350.467 1977.83 350.597 1969.42 350.985C1968.64 351.762 1968.64 354.482 1969.42 355.259C1974.21 355.13 1979.39 355 1983.27 355C1987.16 355 1992.99 355.13 1997.39 355.259C1998.17 354.482 1998.17 351.762 1997.39 350.985C1988.58 350.597 1988.06 350.079 1987.42 339.33L1983.53 284.811C1983.01 277.818 1983.66 276.005 1992.47 275.487C1993.24 274.71 1993.24 271.99 1992.47 271.213L1975.5 271.472L1948.05 337.129C1947.53 338.424 1947.14 338.942 1946.88 338.942C1946.62 338.942 1946.24 338.294 1945.85 337.258L1919.3 271.472L1900.52 271.213C1899.75 271.99 1899.75 274.71 1900.52 275.487C1909.46 276.005 1910.23 276.264 1909.33 285.976L1904.02 339.33C1903.37 347.1 1901.82 350.338 1894.44 350.985C1893.66 351.762 1893.66 354.482 1894.44 355.259C1898.32 355.13 1902.46 355 1905.57 355C1908.68 355 1913.86 355.13 1917.75 355.259C1918.52 354.482 1918.52 351.762 1917.75 350.985C1909.2 350.338 1908.42 346.453 1909.2 339.071L1914.12 287.142H1914.38L1941.19 354.352C1941.44 355.389 1942.35 356.295 1943.13 356.295C1943.9 356.295 1944.42 355.389 1944.94 354.352L1974.08 285.847H1974.34L1977.57 339.978ZM2042.05 318.351C2039.2 318.351 2038.29 317.963 2038.68 316.668L2052.02 283.127H2052.8L2064.97 318.351H2042.05ZM2028.06 344.769L2035.19 325.992C2035.83 324.308 2036.61 323.79 2039.72 323.79H2067.04L2074.55 345.676C2075.98 350.208 2071.06 350.597 2064.97 350.985C2064.19 351.762 2064.19 354.482 2064.97 355.259C2069.76 355.13 2076.88 355 2081.93 355C2087.24 355 2092.17 355.13 2096.7 355.259C2097.47 354.482 2097.47 351.762 2096.7 350.985C2091.65 350.597 2087.24 350.208 2085.04 343.863L2058.37 269.789C2056.42 270.954 2052.93 272.379 2051.24 272.379L2021.85 341.791C2018.48 349.82 2014.47 350.597 2008.9 350.985C2008.12 351.762 2008.12 354.482 2008.9 355.259C2012.26 355.13 2016.41 355 2020.42 355C2025.73 355 2032.21 355.13 2037 355.259C2037.78 354.482 2037.78 351.762 2037 350.985C2032.08 350.727 2025.99 350.208 2028.06 344.769ZM2061.99 248.81L2045.93 259.947C2044.25 261.112 2043.99 261.76 2043.99 262.666C2043.99 263.702 2044.77 264.609 2045.93 264.609C2047.1 264.609 2048.65 264.22 2051.37 263.055L2070.02 255.544C2068.34 252.824 2065.62 250.623 2061.99 248.81ZM2142.65 339.201V289.732C2142.65 281.444 2143.94 276.523 2148.61 276.523H2151.45C2161.17 276.523 2167.25 279.89 2169.46 289.861C2170.88 289.861 2172.69 289.732 2173.86 289.214C2172.95 283.257 2172.3 276.652 2172.17 270.825C2172.17 270.695 2171.92 270.436 2171.79 270.436C2167.38 270.825 2153.01 271.472 2142.78 271.472H2131.64C2121.67 271.472 2106.39 270.825 2101.47 270.436C2101.21 270.436 2100.95 270.695 2100.95 270.825C2100.43 276.652 2099.14 283.386 2097.71 289.603C2099.01 290.12 2100.56 290.25 2102.12 290.25C2104.71 279.89 2110.66 276.523 2119.21 276.523H2125.55C2130.35 276.523 2131.64 281.444 2131.64 289.343V339.201C2131.64 349.949 2129.44 350.597 2119.08 350.985C2118.3 351.762 2118.3 354.482 2119.08 355.259C2125.43 355.13 2131.9 355 2137.21 355C2142.13 355 2148.74 355.13 2155.21 355.259C2155.99 354.482 2155.99 351.762 2155.21 350.985C2144.85 350.597 2142.65 349.949 2142.65 339.201ZM2206.84 339.201V287.271C2206.84 276.523 2209.04 275.875 2218.11 275.487C2218.88 274.71 2218.88 271.99 2218.11 271.213C2212.41 271.343 2206.19 271.472 2201.27 271.472C2196.87 271.472 2190.65 271.343 2184.57 271.213C2183.79 271.99 2183.79 274.71 2184.57 275.487C2193.63 275.875 2195.83 276.523 2195.83 287.271V339.201C2195.83 349.949 2193.63 350.597 2184.57 350.985C2183.79 351.762 2183.79 354.482 2184.57 355.259C2190.39 355.13 2196.61 355 2201.4 355C2205.93 355 2212.28 355.13 2218.11 355.259C2218.88 354.482 2218.88 351.762 2218.11 350.985C2209.04 350.597 2206.84 349.949 2206.84 339.201ZM2274.29 356.295C2286.85 356.295 2298.38 350.338 2307.19 338.812C2306.54 337.647 2305.63 336.87 2304.21 336.87C2295.01 346.971 2286.21 350.985 2274.16 350.985C2256.68 350.985 2244.64 331.301 2244.64 312.394C2244.64 301.257 2247.49 291.933 2252.28 286.106C2258.75 278.206 2266.26 274.58 2273 274.58C2290.87 274.58 2297.99 285.199 2301.36 296.336C2302.91 296.854 2304.08 296.466 2305.63 295.689C2304.98 288.955 2304.08 282.739 2302.78 275.616C2296.18 274.969 2290.35 269.789 2274.42 269.789C2263.41 269.789 2254.22 273.803 2246.58 280.796C2237.9 288.696 2232.85 301.387 2232.85 314.855C2232.85 337.388 2246.45 356.295 2274.29 356.295ZM2353.35 318.351C2350.5 318.351 2349.59 317.963 2349.98 316.668L2363.32 283.127H2364.1L2376.27 318.351H2353.35ZM2339.36 344.769L2346.49 325.992C2347.13 324.308 2347.91 323.79 2351.02 323.79H2378.34L2385.85 345.676C2387.28 350.208 2382.36 350.597 2376.27 350.985C2375.49 351.762 2375.49 354.482 2376.27 355.259C2381.06 355.13 2388.19 355 2393.24 355C2398.55 355 2403.47 355.13 2408 355.259C2408.78 354.482 2408.78 351.762 2408 350.985C2402.95 350.597 2398.55 350.208 2396.34 343.863L2369.67 269.789C2367.72 270.954 2364.23 272.379 2362.54 272.379L2333.15 341.791C2329.78 349.82 2325.77 350.597 2320.2 350.985C2319.42 351.762 2319.42 354.482 2320.2 355.259C2323.57 355.13 2327.71 355 2331.72 355C2337.03 355 2343.51 355.13 2348.3 355.259C2349.08 354.482 2349.08 351.762 2348.3 350.985C2343.38 350.727 2337.29 350.208 2339.36 344.769Z" fill="black"/>
<path d="M767.232 206.295C779.793 206.295 791.319 200.338 800.125 188.812C799.477 187.647 798.571 186.87 797.146 186.87C787.952 196.971 779.146 200.985 767.102 200.985C749.62 200.985 737.576 181.301 737.576 162.394C737.576 151.257 740.425 141.933 745.217 136.106C751.692 128.206 759.203 124.58 765.937 124.58C783.808 124.58 790.93 135.199 794.297 146.336C795.851 146.854 797.017 146.466 798.571 145.689C797.923 138.955 797.017 132.739 795.722 125.616C789.117 124.969 783.29 119.789 767.361 119.789C756.354 119.789 747.159 123.803 739.519 130.796C730.842 138.696 725.792 151.387 725.792 164.855C725.792 187.388 739.389 206.295 767.232 206.295ZM855.095 124.451C872.189 124.451 886.046 138.696 886.046 164.855C886.046 188.035 874.909 201.633 860.146 201.633C844.347 201.633 829.454 187.517 829.454 162.653C829.454 135.458 842.275 124.451 855.095 124.451ZM898.478 162.394C898.478 135.588 879.959 119.789 856.779 119.789C831.656 119.789 817.022 139.861 817.022 164.855C817.022 190.366 835.541 206.295 857.556 206.295C871.801 206.295 883.326 200.208 890.449 189.978C895.629 182.726 898.478 173.272 898.478 162.394ZM982.672 138.696V181.042C982.672 183.503 982.672 184.927 981.765 184.927C981.247 184.927 979.305 182.596 975.549 177.805L931.131 121.472L913.648 121.213C912.871 121.99 912.871 124.71 913.648 125.487C919.217 125.875 923.102 130.408 923.879 133.775V187.776C923.879 199.302 921.677 200.079 912.612 200.985C911.835 201.762 911.835 204.482 912.612 205.259C918.181 205.13 924.008 205 927.116 205C930.095 205 936.052 205.13 941.491 205.259C942.268 204.482 942.268 201.762 941.491 200.985C932.426 200.079 930.224 199.561 930.224 187.776V148.149C930.224 143.746 930.224 141.804 931.26 141.804C932.037 141.804 933.462 143.228 935.663 146.077L980.859 203.187C982.283 205.13 983.967 206.295 986.039 206.295C987.852 206.295 989.017 204.741 989.017 202.28V138.696C989.017 127.17 991.219 126.393 1000.28 125.487C1001.06 124.71 1001.06 121.99 1000.28 121.213C994.974 121.343 988.758 121.472 985.78 121.472C982.931 121.472 977.103 121.343 971.405 121.213C970.628 121.99 970.628 124.71 971.405 125.487C980.47 126.393 982.672 126.911 982.672 138.696ZM1057.55 119.789C1035.92 119.789 1013.52 136.753 1013.52 165.243C1013.52 188.553 1029.58 206.295 1054.31 206.295C1069.59 206.295 1081.64 203.057 1090.44 195.546C1089.02 194.381 1088.37 193.345 1088.37 191.92V176.898C1088.37 172.366 1090.57 171.071 1094.33 170.682C1095.11 169.905 1095.11 166.797 1094.33 166.02C1091.22 166.15 1087.98 166.279 1082.8 166.279C1078.4 166.279 1072.44 166.15 1066.75 166.02C1065.97 166.797 1065.97 169.905 1066.75 170.682C1073.74 171.33 1077.36 171.719 1077.36 176.898V196.712C1072.96 200.856 1064.29 201.633 1057.29 201.633C1036.83 201.633 1025.95 179.747 1025.95 162.653C1025.95 139.991 1040.59 124.451 1055.74 124.451C1074.52 124.451 1079.83 135.199 1083.19 146.336C1084.62 146.466 1085.91 146.207 1087.47 145.559C1087.08 140.12 1086.56 134.94 1084.49 125.616C1076.72 124.321 1071.93 119.789 1057.55 119.789ZM1140.12 124.969C1148.02 124.969 1157.34 127.818 1157.34 143.099C1157.34 159.286 1148.15 162.912 1135.58 162.912H1129.37V133.257C1129.37 129.501 1130.92 124.969 1140.12 124.969ZM1129.37 189.201V167.315C1140.25 167.315 1142.58 169.258 1144.52 172.236L1158.38 194.769C1162 200.856 1167.7 206.295 1175.47 206.295C1177.41 206.295 1179.61 206.036 1180.91 205.389C1181.3 204.611 1181.3 203.316 1180.78 202.28C1174.95 202.28 1171.71 198.007 1168.35 192.309L1152.03 165.114C1157.6 163.301 1169.25 156.567 1169.25 142.969C1169.25 136.494 1167.05 131.185 1162.39 126.782C1156.17 120.954 1148.15 120.566 1139.99 120.566C1133.9 120.566 1128.46 121.472 1123.8 121.472C1119.27 121.472 1113.18 121.343 1107.09 121.213C1106.32 121.99 1106.32 124.71 1107.09 125.487C1116.16 125.875 1118.36 126.523 1118.36 137.271V189.201C1118.36 199.949 1116.16 200.597 1107.09 200.985C1106.32 201.762 1106.32 204.482 1107.09 205.259C1112.92 205.13 1118.88 205 1123.93 205C1128.72 205 1134.94 205.13 1140.63 205.259C1141.41 204.482 1141.41 201.762 1140.63 200.985C1131.57 200.597 1129.37 199.949 1129.37 189.201ZM1224.8 158.25H1213.01V134.94C1213.01 129.242 1214.57 126.652 1221.56 126.652H1231.27C1240.99 126.652 1243.06 131.833 1245.91 140.768C1247.46 141.027 1248.89 140.768 1250.18 140.12C1249.53 134.811 1247.59 122.379 1247.33 121.343C1247.33 121.084 1247.2 120.954 1246.81 120.954C1244.61 121.343 1243.58 121.472 1240.47 121.472H1207.45C1203.43 121.472 1195.92 121.343 1190.74 121.213C1189.96 121.99 1189.96 124.71 1190.74 125.487C1199.8 125.875 1202.01 126.523 1202.01 137.271V189.201C1202.01 199.949 1199.8 200.597 1190.74 200.985C1189.96 201.762 1189.96 204.482 1190.74 205.259C1195.53 205.13 1203.3 205 1207.57 205H1235.42C1241.63 205 1251.99 205.259 1251.99 205.259C1253.81 198.784 1255.75 190.237 1256.78 183.632C1255.36 182.985 1253.94 182.596 1252.25 182.985C1249.66 192.309 1245.13 199.949 1235.29 199.949H1220.27C1214.83 199.949 1213.01 197.877 1213.01 191.791V163.171H1224.8C1235.81 163.171 1236.19 166.15 1236.58 171.977C1237.36 172.754 1240.08 172.754 1240.86 171.977C1240.73 168.61 1240.6 165.114 1240.6 160.581C1240.6 156.955 1240.73 152.552 1240.86 149.444C1240.08 148.667 1237.36 148.667 1236.58 149.444C1236.19 156.567 1235.81 158.25 1224.8 158.25ZM1319.03 123.285C1311.52 122.249 1311.91 119.789 1299.21 119.789C1286.13 119.789 1274.61 128.465 1274.61 142.192C1274.61 155.919 1285.75 162.135 1297.14 166.409C1305.04 169.517 1314.62 173.143 1314.62 185.704C1314.62 196.194 1308.67 201.633 1298.44 201.633C1286.26 201.633 1278.49 196.194 1275.65 183.244C1274.09 182.726 1272.67 182.985 1271.5 183.632C1272.02 193.604 1272.54 196.971 1274.09 203.316C1282.25 203.316 1285.75 206.295 1297.27 206.295C1303.23 206.295 1308.8 204.87 1313.33 202.151C1320.71 197.489 1325.5 189.46 1325.5 181.172C1325.5 167.445 1315.01 161.358 1304.39 157.473C1296.75 154.495 1283.8 149.703 1283.8 138.696C1283.8 131.444 1290.41 124.192 1297.92 124.192C1310.61 124.192 1314.62 132.221 1317.21 140.768C1318.51 141.027 1320.19 140.897 1321.36 139.991C1320.97 133.775 1320.45 130.149 1319.03 123.285ZM1381.23 124.451C1398.33 124.451 1412.18 138.696 1412.18 164.855C1412.18 188.035 1401.05 201.633 1386.28 201.633C1370.49 201.633 1355.59 187.517 1355.59 162.653C1355.59 135.458 1368.41 124.451 1381.23 124.451ZM1424.62 162.394C1424.62 135.588 1406.1 119.789 1382.92 119.789C1357.79 119.789 1343.16 139.861 1343.16 164.855C1343.16 190.366 1361.68 206.295 1383.69 206.295C1397.94 206.295 1409.46 200.208 1416.59 189.978C1421.77 182.726 1424.62 173.272 1424.62 162.394ZM1513.08 158.25H1501.3V134.94C1501.3 129.242 1502.85 126.652 1509.85 126.652H1519.56C1529.27 126.652 1531.34 131.833 1534.19 140.768C1535.75 141.027 1537.17 140.768 1538.47 140.12C1537.82 134.811 1535.88 122.379 1535.62 121.343C1535.62 121.084 1535.49 120.954 1535.1 120.954C1532.9 121.343 1531.86 121.472 1528.75 121.472H1495.73C1491.72 121.472 1484.21 121.343 1479.03 121.213C1478.25 121.99 1478.25 124.71 1479.03 125.487C1488.09 125.875 1490.29 126.523 1490.29 137.271V189.201C1490.29 199.949 1488.09 200.597 1479.03 200.985C1478.25 201.762 1478.25 204.482 1479.03 205.259C1483.82 205.13 1491.59 205 1495.86 205H1523.7C1529.92 205 1540.28 205.259 1540.28 205.259C1542.09 198.784 1544.03 190.237 1545.07 183.632C1543.65 182.985 1542.22 182.596 1540.54 182.985C1537.95 192.309 1533.42 199.949 1523.57 199.949H1508.55C1503.11 199.949 1501.3 197.877 1501.3 191.791V163.171H1513.08C1524.09 163.171 1524.48 166.15 1524.87 171.977C1525.65 172.754 1528.36 172.754 1529.14 171.977C1529.01 168.61 1528.88 165.114 1528.88 160.581C1528.88 156.955 1529.01 152.552 1529.14 149.444C1528.36 148.667 1525.65 148.667 1524.87 149.444C1524.48 156.567 1524.09 158.25 1513.08 158.25ZM1607.31 123.285C1599.8 122.249 1600.19 119.789 1587.5 119.789C1574.42 119.789 1562.89 128.465 1562.89 142.192C1562.89 155.919 1574.03 162.135 1585.43 166.409C1593.33 169.517 1602.91 173.143 1602.91 185.704C1602.91 196.194 1596.95 201.633 1586.72 201.633C1574.55 201.633 1566.78 196.194 1563.93 183.244C1562.38 182.726 1560.95 182.985 1559.79 183.632C1560.3 193.604 1560.82 196.971 1562.38 203.316C1570.54 203.316 1574.03 206.295 1585.56 206.295C1591.51 206.295 1597.08 204.87 1601.62 202.151C1609 197.489 1613.79 189.46 1613.79 181.172C1613.79 167.445 1603.3 161.358 1592.68 157.473C1585.04 154.495 1572.09 149.703 1572.09 138.696C1572.09 131.444 1578.69 124.192 1586.2 124.192C1598.9 124.192 1602.91 132.221 1605.5 140.768C1606.8 141.027 1608.48 140.897 1609.64 139.991C1609.26 133.775 1608.74 130.149 1607.31 123.285ZM1671.98 189.201V139.732C1671.98 131.444 1673.27 126.523 1677.94 126.523H1680.79C1690.5 126.523 1696.58 129.89 1698.79 139.861C1700.21 139.861 1702.02 139.732 1703.19 139.214C1702.28 133.257 1701.63 126.652 1701.51 120.825C1701.51 120.695 1701.25 120.436 1701.12 120.436C1696.71 120.825 1682.34 121.472 1672.11 121.472H1660.97C1651 121.472 1635.72 120.825 1630.8 120.436C1630.54 120.436 1630.28 120.695 1630.28 120.825C1629.76 126.652 1628.47 133.386 1627.04 139.603C1628.34 140.12 1629.89 140.25 1631.45 140.25C1634.04 129.89 1639.99 126.523 1648.54 126.523H1654.89C1659.68 126.523 1660.97 131.444 1660.97 139.343V189.201C1660.97 199.949 1658.77 200.597 1648.41 200.985C1647.63 201.762 1647.63 204.482 1648.41 205.259C1654.76 205.13 1661.23 205 1666.54 205C1671.46 205 1678.07 205.13 1684.54 205.259C1685.32 204.482 1685.32 201.762 1684.54 200.985C1674.18 200.597 1671.98 199.949 1671.98 189.201ZM1738.51 137.271C1738.51 126.523 1740.46 125.875 1750.43 125.487C1751.21 124.71 1751.21 121.99 1750.43 121.213C1744.34 121.343 1738 121.472 1732.95 121.472C1727.9 121.472 1722.59 121.343 1717.54 121.213C1716.76 121.99 1716.76 124.71 1717.54 125.487C1725.31 125.875 1727.51 126.523 1727.51 137.271V174.826C1727.51 201.244 1744.47 206.295 1757.81 206.295C1784.36 206.295 1790.7 189.848 1790.7 166.797V137.271C1790.7 126.911 1792.9 126.393 1800.67 125.487C1801.45 124.71 1801.45 121.99 1800.67 121.213C1795.75 121.343 1790.44 121.472 1787.47 121.472C1784.62 121.472 1778.4 121.343 1772.44 121.213C1771.67 121.99 1771.67 124.71 1772.44 125.487C1782.16 126.393 1784.36 126.782 1784.36 137.271V169.128C1784.36 183.632 1782.42 200.985 1760.53 200.985C1754.31 200.985 1749 198.654 1745.12 194.899C1738.77 188.812 1738.51 178.97 1738.51 170.553V137.271ZM1834.1 194.122V131.962C1834.1 127.429 1838.64 125.616 1844.98 125.616C1872.95 125.616 1882.15 148.279 1882.15 168.222C1882.15 194.381 1866.48 200.856 1848.22 200.856C1835.53 200.856 1834.1 198.266 1834.1 194.122ZM1828.53 121.472C1823.87 121.472 1817.01 121.343 1811.83 121.213C1811.05 121.99 1811.05 124.71 1811.83 125.487C1820.89 125.875 1823.1 126.523 1823.1 137.271V189.201C1823.1 199.949 1820.89 200.597 1811.83 200.985C1811.05 201.762 1811.05 204.482 1811.83 205.259C1816.88 205.13 1823.74 205 1828.66 205C1833.46 205 1838.89 205.259 1852.23 205.259C1870.49 205.259 1894.58 196.971 1894.58 165.114C1894.58 141.027 1874.77 121.213 1849.9 121.213C1840.71 121.213 1833.59 121.472 1828.53 121.472ZM1932.42 189.201V137.271C1932.42 126.523 1934.62 125.875 1943.68 125.487C1944.46 124.71 1944.46 121.99 1943.68 121.213C1937.98 121.343 1931.77 121.472 1926.85 121.472C1922.44 121.472 1916.23 121.343 1910.14 121.213C1909.36 121.99 1909.36 124.71 1910.14 125.487C1919.21 125.875 1921.41 126.523 1921.41 137.271V189.201C1921.41 199.949 1919.21 200.597 1910.14 200.985C1909.36 201.762 1909.36 204.482 1910.14 205.259C1915.97 205.13 1922.19 205 1926.98 205C1931.51 205 1937.85 205.13 1943.68 205.259C1944.46 204.482 1944.46 201.762 1943.68 200.985C1934.62 200.597 1932.42 199.949 1932.42 189.201ZM1987.7 168.351C1984.85 168.351 1983.94 167.963 1984.33 166.668L1997.67 133.127H1998.44L2010.62 168.351H1987.7ZM1973.71 194.769L1980.83 175.992C1981.48 174.308 1982.26 173.79 1985.37 173.79H2012.69L2020.2 195.676C2021.63 200.208 2016.7 200.597 2010.62 200.985C2009.84 201.762 2009.84 204.482 2010.62 205.259C2015.41 205.13 2022.53 205 2027.58 205C2032.89 205 2037.81 205.13 2042.35 205.259C2043.12 204.482 2043.12 201.762 2042.35 200.985C2037.29 200.597 2032.89 200.208 2030.69 193.863L2004.01 119.789C2002.07 120.954 1998.57 122.379 1996.89 122.379L1967.49 191.791C1964.13 199.82 1960.11 200.597 1954.54 200.985C1953.77 201.762 1953.77 204.482 1954.54 205.259C1957.91 205.13 1962.06 205 1966.07 205C1971.38 205 1977.85 205.13 1982.65 205.259C1983.42 204.482 1983.42 201.762 1982.65 200.985C1977.72 200.727 1971.64 200.208 1973.71 194.769ZM2123.19 138.696V181.042C2123.19 183.503 2123.19 184.927 2122.29 184.927C2121.77 184.927 2119.83 182.596 2116.07 177.805L2071.65 121.472L2054.17 121.213C2053.39 121.99 2053.39 124.71 2054.17 125.487C2059.74 125.875 2063.62 130.408 2064.4 133.775V187.776C2064.4 199.302 2062.2 200.079 2053.13 200.985C2052.36 201.762 2052.36 204.482 2053.13 205.259C2058.7 205.13 2064.53 205 2067.64 205C2070.62 205 2076.57 205.13 2082.01 205.259C2082.79 204.482 2082.79 201.762 2082.01 200.985C2072.95 200.079 2070.75 199.561 2070.75 187.776V148.149C2070.75 143.746 2070.75 141.804 2071.78 141.804C2072.56 141.804 2073.98 143.228 2076.19 146.077L2121.38 203.187C2122.81 205.13 2124.49 206.295 2126.56 206.295C2128.37 206.295 2129.54 204.741 2129.54 202.28V138.696C2129.54 127.17 2131.74 126.393 2140.81 125.487C2141.58 124.71 2141.58 121.99 2140.81 121.213C2135.5 121.343 2129.28 121.472 2126.3 121.472C2123.45 121.472 2117.63 121.343 2111.93 121.213C2111.15 121.99 2111.15 124.71 2111.93 125.487C2120.99 126.393 2123.19 126.911 2123.19 138.696ZM2199.38 189.201V139.732C2199.38 131.444 2200.68 126.523 2205.34 126.523H2208.19C2217.9 126.523 2223.99 129.89 2226.19 139.861C2227.61 139.861 2229.43 139.732 2230.59 139.214C2229.69 133.257 2229.04 126.652 2228.91 120.825C2228.91 120.695 2228.65 120.436 2228.52 120.436C2224.12 120.825 2209.74 121.472 2199.51 121.472H2188.37C2178.4 121.472 2163.12 120.825 2158.2 120.436C2157.94 120.436 2157.68 120.695 2157.68 120.825C2157.17 126.652 2155.87 133.386 2154.45 139.603C2155.74 140.12 2157.29 140.25 2158.85 140.25C2161.44 129.89 2167.4 126.523 2175.94 126.523H2182.29C2187.08 126.523 2188.37 131.444 2188.37 139.343V189.201C2188.37 199.949 2186.17 200.597 2175.81 200.985C2175.04 201.762 2175.04 204.482 2175.81 205.259C2182.16 205.13 2188.63 205 2193.94 205C2198.86 205 2205.47 205.13 2211.94 205.259C2212.72 204.482 2212.72 201.762 2211.94 200.985C2201.58 200.597 2199.38 199.949 2199.38 189.201ZM2263.57 189.201V137.271C2263.57 126.523 2265.77 125.875 2274.84 125.487C2275.62 124.71 2275.62 121.99 2274.84 121.213C2269.14 121.343 2262.93 121.472 2258 121.472C2253.6 121.472 2247.39 121.343 2241.3 121.213C2240.52 121.99 2240.52 124.71 2241.3 125.487C2250.36 125.875 2252.57 126.523 2252.57 137.271V189.201C2252.57 199.949 2250.36 200.597 2241.3 200.985C2240.52 201.762 2240.52 204.482 2241.3 205.259C2247.13 205.13 2253.34 205 2258.13 205C2262.67 205 2269.01 205.13 2274.84 205.259C2275.62 204.482 2275.62 201.762 2274.84 200.985C2265.77 200.597 2263.57 199.949 2263.57 189.201ZM2304.09 205H2331.54C2335.17 205 2347.08 205.259 2347.08 205.259C2348.38 198.784 2349.67 190.366 2350.45 183.632C2349.16 183.114 2347.73 182.855 2346.18 182.985C2343.59 192.309 2338.8 199.949 2325.07 199.949H2316.91C2311.86 199.949 2309.53 197.489 2309.53 190.884V137.271C2309.53 126.523 2311.73 125.875 2320.8 125.487C2321.57 124.71 2321.57 121.99 2320.8 121.213C2314.97 121.343 2308.88 121.472 2303.96 121.472C2299.17 121.472 2293.21 121.343 2287.25 121.213C2286.48 121.99 2286.48 124.71 2287.25 125.487C2296.32 125.875 2298.52 126.523 2298.52 137.271V189.201C2298.52 199.949 2296.32 200.597 2287.25 200.985C2286.48 201.762 2286.48 204.482 2287.25 205.259C2292.31 205.13 2299.69 205 2304.09 205Z" fill="black"/>
<path d="M189.16 118.12C220.24 120.22 220.24 131.56 211.42 154.24L145.06 322.66H142.96L76.18 151.72C66.52 126.94 69.04 121.06 97.6 118.12C100.12 115.6 100.12 106.78 97.6 104.26C80.8 104.68 61.9 105.1 46.78 105.1C31.24 105.1 16.96 104.68 3.1 104.26C0.58 106.78 1 115.6 3.52 118.12C26.62 120.22 29.56 127.36 40.9 156.34L124.06 371.38C126.58 378.1 129.52 381.04 133.72 381.04C138.34 381.04 141.28 377.68 143.8 371.38L230.32 157.18C238.3 137.44 245.44 121.06 271.9 118.12C274.42 115.6 274.42 106.78 271.9 104.26C259.3 104.68 244.6 105.1 234.94 105.1C225.28 105.1 206.38 104.68 189.16 104.26C186.64 106.78 186.64 115.6 189.16 118.12ZM359.404 324.76V156.34C359.404 121.48 366.544 119.38 395.944 118.12C398.464 115.6 398.464 106.78 395.944 104.26C377.464 104.68 357.304 105.1 341.344 105.1C327.064 105.1 306.904 104.68 287.164 104.26C284.644 106.78 284.644 115.6 287.164 118.12C316.564 119.38 323.704 121.48 323.704 156.34V324.76C323.704 359.62 316.564 361.72 287.164 362.98C284.644 365.5 284.644 374.32 287.164 376.84C306.064 376.42 326.224 376 341.764 376C356.464 376 377.044 376.42 395.944 376.84C398.464 374.32 398.464 365.5 395.944 362.98C366.544 361.72 359.404 359.62 359.404 324.76ZM488.292 324.76V156.34C488.292 121.48 495.432 119.38 524.832 118.12C527.352 115.6 527.352 106.78 524.832 104.26C506.352 104.68 486.192 105.1 470.232 105.1C455.952 105.1 435.792 104.68 416.052 104.26C413.532 106.78 413.532 115.6 416.052 118.12C445.452 119.38 452.592 121.48 452.592 156.34V324.76C452.592 359.62 445.452 361.72 416.052 362.98C413.532 365.5 413.532 374.32 416.052 376.84C434.952 376.42 455.112 376 470.652 376C485.352 376 505.932 376.42 524.832 376.84C527.352 374.32 527.352 365.5 524.832 362.98C495.432 361.72 488.292 359.62 488.292 324.76ZM617.179 324.76V156.34C617.179 121.48 624.319 119.38 653.719 118.12C656.239 115.6 656.239 106.78 653.719 104.26C635.239 104.68 615.079 105.1 599.119 105.1C584.839 105.1 564.679 104.68 544.939 104.26C542.419 106.78 542.419 115.6 544.939 118.12C574.339 119.38 581.479 121.48 581.479 156.34V324.76C581.479 359.62 574.339 361.72 544.939 362.98C542.419 365.5 542.419 374.32 544.939 376.84C563.839 376.42 583.999 376 599.539 376C614.239 376 634.819 376.42 653.719 376.84C656.239 374.32 656.239 365.5 653.719 362.98C624.319 361.72 617.179 359.62 617.179 324.76Z" fill="black"/>
</svg>
