<svg width="123" height="279" viewBox="0 0 123 279" fill="none" xmlns="http://www.w3.org/2000/svg">
<circle cx="61.8144" cy="135.5" r="8.5" fill="black"/>
<path d="M36.3721 126C38.4426 99.8743 48.9049 80 61.5 80C67.712 80 73.4052 84.8345 77.8287 92.8692C74.4917 93.5646 70.2191 93.1589 68.5 92.8692C66.3564 90.3806 63.9889 89 61.5 89C52.8563 89 45.6763 105.651 44.2554 127.541C44.1394 129.328 44.0618 131.149 44.0249 133C40.4448 131.4 37.4313 127.667 36.3721 126Z" fill="black"/>
<path d="M87 135.5C87 166.152 75.5833 191 61.5 191C55.5153 191 50.0122 186.513 45.662 179C47.108 178.245 50.7 176.762 53.5 176.868C55.8977 180.148 58.6175 182 61.5 182C71.165 182 79 161.181 79 135.5C79 129.689 78.5989 124.128 77.8663 119C82.9593 119 85.5321 120.667 86.1818 121.5C86.7158 125.972 87 130.664 87 135.5Z" fill="black"/>
<path d="M66.1158 162.173C42.455 173.442 20.0122 174.319 13.7147 163.411C10.6087 158.031 11.9489 150.684 16.6954 142.835C18.9661 145.378 20.7511 149.281 21.3597 150.914C20.2763 154.015 20.2645 156.756 21.5089 158.911C25.8307 166.397 43.8413 164.289 63.5083 154.575C65.1139 153.782 66.7305 152.938 68.3516 152.045C68.756 155.946 67.0296 160.422 66.1158 162.173Z" fill="black"/>
<path d="M49.0291 113.577C75.5743 98.2516 102.802 95.7147 109.843 107.911C112.836 113.094 111.701 120.103 107.37 127.627C105.993 126.752 102.913 124.383 101.605 121.905C103.247 118.189 103.491 114.907 102.049 112.411C97.2168 104.041 75.2697 107.665 53.0291 120.506C47.997 123.411 43.3811 126.539 39.3065 129.738C36.76 125.327 36.917 122.265 37.3138 121.286C40.92 118.587 44.8409 115.996 49.0291 113.577Z" fill="black"/>
<path d="M82.5703 118.327C104.161 133.183 116.141 152.181 109.843 163.089C106.737 168.469 99.704 170.982 90.5341 170.795C91.6004 167.558 94.0879 164.06 95.1984 162.716C98.4255 162.104 100.805 160.744 102.049 158.589C106.371 151.103 95.5406 136.559 77.2945 124.384C75.8049 123.39 74.2659 122.412 72.6817 121.455C75.8574 119.154 80.5973 118.411 82.5703 118.327Z" fill="black"/>
<path d="M49.0291 157.423C22.4838 142.097 6.67304 119.785 13.7147 107.589C16.707 102.406 23.3446 99.8837 32.026 99.8728C31.9567 101.502 31.4452 105.355 29.9536 107.727C25.9138 108.163 22.9502 109.593 21.5089 112.089C16.6764 120.459 30.7885 137.654 53.0291 150.494C58.0611 153.4 63.0782 155.833 67.8854 157.762C65.3388 162.173 62.6091 163.568 61.5625 163.714C57.4224 161.94 53.2172 159.841 49.0291 157.423Z" fill="black"/>
<path d="M113.5 12C113.5 15.0376 111.038 17.5 108 17.5C104.962 17.5 102.5 15.0376 102.5 12C102.5 9.68645 103.928 7.70654 105.952 6.89414C106.027 6.86394 106.103 6.83535 106.18 6.80842C106.749 6.60864 107.362 6.5 108 6.5C111.038 6.5 113.5 8.96243 113.5 12Z" fill="black"/>
<path d="M108 6.5C111.038 6.5 113.5 8.96243 113.5 12C113.5 6.57419 110.944 3.66129 108 2.21416C105.735 1.10085 103.239 0.855062 101.5 1C100 1.125 93.2038 0.6 87.3355 11C83.8757 17.5984 80.25 28.3133 78.5 34.1762C75.4413 44.5783 72.5478 58.8403 70.5 66.5H81.5C83.1918 52.9656 87.2142 28.8296 92.5 14.2935C93.1658 12.1453 94.5046 8.70594 96.2004 6C96.967 4.81029 99.4 2.46738 103 2.61344C103.547 2.64036 104.056 2.70845 104.5 2.79602C104.907 2.86402 105.849 3.2 106.36 4C107.095 5.16127 106.663 6.22929 106.18 6.80842C106.749 6.60864 107.362 6.5 108 6.5Z" fill="black"/>
<path d="M3.5 266.5C3.5 263.462 5.96243 261 9 261C12.0376 261 14.5 263.462 14.5 266.5C14.5 268.814 13.0731 270.793 11.05 271.606C10.9748 271.636 10.9968 271.665 10.92 271.692C10.3502 271.891 9.63802 272 9 272C5.96243 272 3.5 269.538 3.5 266.5Z" fill="black"/>
<path d="M9 272C5.96243 272 3.5 269.538 3.5 266.5C3.5 267.209 3.54399 267.875 3.62688 268.5C3.91053 270.64 4.60545 272.349 5.5 273.699L5.52478 273.736C7.04309 275.925 9.75422 277.288 10.92 277.696C12.4528 278.139 14.4533 278.447 16.7609 278.318C17.7292 278.269 19.2986 278.051 21 277.557C22.1231 277.217 24.1668 276.358 26.1674 274.98C27.404 274.078 29.9026 271.732 32.5216 268.06C33.7556 266.33 35.0162 264.306 36.1843 262C36.9775 260.522 37.6954 259.003 38.2665 257.5C39.1109 255.532 39.9427 253.37 40.7434 251C44.6088 240.878 48.6897 226.551 53 205H42.5C41.1667 214.5 37.7 236 34.5 246C33.3577 250.497 30.6494 259.205 27.3028 265.5C24.745 270.7 21.673 273.667 20.4567 274.5C19.2318 275.421 18.0534 275.874 17.5 276C14.3 276.8 12.199 275.653 11.5485 274.98C11.3973 274.843 11.2571 274.684 11.1396 274.5C10.4049 273.339 10.4364 272.271 10.92 271.692C10.3502 271.891 9.63802 272 9 272Z" fill="black"/>
</svg>
